<mxfile host="Electron" modified="2023-11-12T08:38:30.230Z" agent="Mozilla/5.0 (Windows NT 10.0; Win64; x64) AppleWebKit/537.36 (KHTML, like Gecko) draw.io/22.0.3 Chrome/114.0.5735.289 Electron/25.8.4 Safari/537.36" etag="3Ti_X_IppXJujstIO6kq" version="22.0.3" type="device" pages="2">
  <diagram id="V3D_2llKBooERNwUIwbZ" name="MENU AKUN">
    <mxGraphModel dx="1748" dy="2952" grid="1" gridSize="10" guides="1" tooltips="1" connect="1" arrows="1" fold="1" page="1" pageScale="1" pageWidth="850" pageHeight="1100" math="0" shadow="0">
      <root>
        <mxCell id="0" />
        <mxCell id="1" parent="0" />
        <mxCell id="utkvW5zITEMGG1GMWqk9-1" style="edgeStyle=orthogonalEdgeStyle;rounded=0;orthogonalLoop=1;jettySize=auto;html=1;entryX=0.5;entryY=0;entryDx=0;entryDy=0;" parent="1" source="i1QptdFqVJKg7bUNVQ98-1" target="i1QptdFqVJKg7bUNVQ98-2" edge="1">
          <mxGeometry relative="1" as="geometry" />
        </mxCell>
        <mxCell id="i1QptdFqVJKg7bUNVQ98-1" value="START" style="strokeWidth=2;html=1;shape=mxgraph.flowchart.start_1;whiteSpace=wrap;" parent="1" vertex="1">
          <mxGeometry x="370" y="-2190" width="90" height="50" as="geometry" />
        </mxCell>
        <mxCell id="BPP6GHOip91S59tif-WF-2" style="edgeStyle=orthogonalEdgeStyle;rounded=0;orthogonalLoop=1;jettySize=auto;html=1;entryX=0.5;entryY=0;entryDx=0;entryDy=0;" parent="1" source="i1QptdFqVJKg7bUNVQ98-2" target="xjhkfirNEth1INLRV5lA-3" edge="1">
          <mxGeometry relative="1" as="geometry" />
        </mxCell>
        <mxCell id="i1QptdFqVJKg7bUNVQ98-2" value="Output :&lt;br style=&quot;border-color: var(--border-color);&quot;&gt;Menu Akun&lt;br style=&quot;border-color: var(--border-color);&quot;&gt;&lt;div style=&quot;text-align: left;&quot;&gt;&lt;span style=&quot;background-color: initial;&quot;&gt;1. Register&lt;/span&gt;&lt;/div&gt;&lt;div style=&quot;text-align: left;&quot;&gt;&lt;span style=&quot;background-color: initial;&quot;&gt;2. Login&lt;/span&gt;&lt;/div&gt;&lt;div style=&quot;text-align: left;&quot;&gt;&lt;span style=&quot;background-color: initial;&quot;&gt;3. Keluar&lt;/span&gt;&lt;/div&gt;" style="shape=parallelogram;html=1;strokeWidth=2;perimeter=parallelogramPerimeter;whiteSpace=wrap;rounded=1;arcSize=12;size=0.23;" parent="1" vertex="1">
          <mxGeometry x="353.75" y="-2100" width="122.5" height="80" as="geometry" />
        </mxCell>
        <mxCell id="xjhkfirNEth1INLRV5lA-3" value="Input :&lt;br style=&quot;border-color: var(--border-color);&quot;&gt;Pilihan menu" style="shape=parallelogram;html=1;strokeWidth=2;perimeter=parallelogramPerimeter;whiteSpace=wrap;rounded=1;arcSize=12;size=0.23;" parent="1" vertex="1">
          <mxGeometry x="357" y="-1980" width="116" height="40" as="geometry" />
        </mxCell>
        <mxCell id="Bd4KI3bvESrvDeJL_Is7-3" style="edgeStyle=orthogonalEdgeStyle;rounded=0;orthogonalLoop=1;jettySize=auto;html=1;entryX=0;entryY=0.5;entryDx=0;entryDy=0;" parent="1" source="iYq0BwlyLicoYW3sQFm4-1" target="Bd4KI3bvESrvDeJL_Is7-2" edge="1">
          <mxGeometry relative="1" as="geometry" />
        </mxCell>
        <mxCell id="Bd4KI3bvESrvDeJL_Is7-6" value="YES" style="edgeLabel;html=1;align=center;verticalAlign=middle;resizable=0;points=[];" parent="Bd4KI3bvESrvDeJL_Is7-3" vertex="1" connectable="0">
          <mxGeometry x="-0.3035" y="2" relative="1" as="geometry">
            <mxPoint x="5" y="2" as="offset" />
          </mxGeometry>
        </mxCell>
        <mxCell id="iYq0BwlyLicoYW3sQFm4-1" value="Pilihan == 1" style="strokeWidth=2;html=1;shape=mxgraph.flowchart.decision;whiteSpace=wrap;" parent="1" vertex="1">
          <mxGeometry x="365" y="-1900" width="100" height="60" as="geometry" />
        </mxCell>
        <mxCell id="BPP6GHOip91S59tif-WF-1" style="edgeStyle=orthogonalEdgeStyle;rounded=0;orthogonalLoop=1;jettySize=auto;html=1;entryX=0.5;entryY=0;entryDx=0;entryDy=0;entryPerimeter=0;" parent="1" source="xjhkfirNEth1INLRV5lA-3" target="iYq0BwlyLicoYW3sQFm4-1" edge="1">
          <mxGeometry relative="1" as="geometry" />
        </mxCell>
        <mxCell id="Bd4KI3bvESrvDeJL_Is7-12" style="edgeStyle=orthogonalEdgeStyle;rounded=0;orthogonalLoop=1;jettySize=auto;html=1;entryX=0;entryY=0.5;entryDx=0;entryDy=0;" parent="1" source="YhA6OgRteMt7KzuuNI6r-1" target="Bd4KI3bvESrvDeJL_Is7-10" edge="1">
          <mxGeometry relative="1" as="geometry" />
        </mxCell>
        <mxCell id="Bd4KI3bvESrvDeJL_Is7-13" value="YES" style="edgeLabel;html=1;align=center;verticalAlign=middle;resizable=0;points=[];" parent="Bd4KI3bvESrvDeJL_Is7-12" vertex="1" connectable="0">
          <mxGeometry x="-0.0108" y="-3" relative="1" as="geometry">
            <mxPoint y="-3" as="offset" />
          </mxGeometry>
        </mxCell>
        <mxCell id="YhA6OgRteMt7KzuuNI6r-1" value="Pilihan == 2" style="strokeWidth=2;html=1;shape=mxgraph.flowchart.decision;whiteSpace=wrap;" parent="1" vertex="1">
          <mxGeometry x="365" y="-1740" width="100" height="60" as="geometry" />
        </mxCell>
        <mxCell id="TiQICBpBHZjgXO6E-n1i-3" style="edgeStyle=orthogonalEdgeStyle;rounded=0;orthogonalLoop=1;jettySize=auto;html=1;entryX=0;entryY=0.5;entryDx=0;entryDy=0;" parent="1" source="YhA6OgRteMt7KzuuNI6r-2" target="i1QptdFqVJKg7bUNVQ98-2" edge="1">
          <mxGeometry relative="1" as="geometry">
            <Array as="points">
              <mxPoint x="320" y="-1570" />
              <mxPoint x="320" y="-2060" />
            </Array>
          </mxGeometry>
        </mxCell>
        <mxCell id="TiQICBpBHZjgXO6E-n1i-4" value="NO" style="edgeLabel;html=1;align=center;verticalAlign=middle;resizable=0;points=[];" parent="TiQICBpBHZjgXO6E-n1i-3" vertex="1" connectable="0">
          <mxGeometry x="-0.9216" y="2" relative="1" as="geometry">
            <mxPoint as="offset" />
          </mxGeometry>
        </mxCell>
        <mxCell id="YhA6OgRteMt7KzuuNI6r-2" value="Pilihan == 3" style="strokeWidth=2;html=1;shape=mxgraph.flowchart.decision;whiteSpace=wrap;" parent="1" vertex="1">
          <mxGeometry x="365" y="-1600" width="100" height="60" as="geometry" />
        </mxCell>
        <mxCell id="YhA6OgRteMt7KzuuNI6r-3" style="edgeStyle=orthogonalEdgeStyle;rounded=0;orthogonalLoop=1;jettySize=auto;html=1;entryX=0.5;entryY=0;entryDx=0;entryDy=0;entryPerimeter=0;" parent="1" source="iYq0BwlyLicoYW3sQFm4-1" target="YhA6OgRteMt7KzuuNI6r-1" edge="1">
          <mxGeometry relative="1" as="geometry" />
        </mxCell>
        <mxCell id="2nMOgubhxIaWfEr19v6u-1" value="NO" style="edgeLabel;html=1;align=center;verticalAlign=middle;resizable=0;points=[];" parent="YhA6OgRteMt7KzuuNI6r-3" vertex="1" connectable="0">
          <mxGeometry x="-0.02" relative="1" as="geometry">
            <mxPoint as="offset" />
          </mxGeometry>
        </mxCell>
        <mxCell id="YhA6OgRteMt7KzuuNI6r-4" style="edgeStyle=orthogonalEdgeStyle;rounded=0;orthogonalLoop=1;jettySize=auto;html=1;entryX=0.5;entryY=0;entryDx=0;entryDy=0;entryPerimeter=0;" parent="1" source="YhA6OgRteMt7KzuuNI6r-1" target="YhA6OgRteMt7KzuuNI6r-2" edge="1">
          <mxGeometry relative="1" as="geometry" />
        </mxCell>
        <mxCell id="2nMOgubhxIaWfEr19v6u-2" value="NO" style="edgeLabel;html=1;align=center;verticalAlign=middle;resizable=0;points=[];" parent="YhA6OgRteMt7KzuuNI6r-4" vertex="1" connectable="0">
          <mxGeometry x="0.03" y="1" relative="1" as="geometry">
            <mxPoint as="offset" />
          </mxGeometry>
        </mxCell>
        <mxCell id="Bd4KI3bvESrvDeJL_Is7-5" style="edgeStyle=orthogonalEdgeStyle;rounded=0;orthogonalLoop=1;jettySize=auto;html=1;exitX=1;exitY=0.5;exitDx=0;exitDy=0;entryX=0;entryY=0.5;entryDx=0;entryDy=0;" parent="1" source="PHjydk8iy5Hm4LvnV3hT-1" target="Bd4KI3bvESrvDeJL_Is7-4" edge="1">
          <mxGeometry relative="1" as="geometry" />
        </mxCell>
        <mxCell id="PHjydk8iy5Hm4LvnV3hT-5" value="YES" style="edgeLabel;html=1;align=center;verticalAlign=middle;resizable=0;points=[];" parent="Bd4KI3bvESrvDeJL_Is7-5" vertex="1" connectable="0">
          <mxGeometry x="0.0492" y="1" relative="1" as="geometry">
            <mxPoint as="offset" />
          </mxGeometry>
        </mxCell>
        <mxCell id="Bd4KI3bvESrvDeJL_Is7-2" value="Input :&lt;br style=&quot;border-color: var(--border-color);&quot;&gt;Data akun" style="shape=parallelogram;html=1;strokeWidth=2;perimeter=parallelogramPerimeter;whiteSpace=wrap;rounded=1;arcSize=12;size=0.23;" parent="1" vertex="1">
          <mxGeometry x="494" y="-1890" width="116" height="40" as="geometry" />
        </mxCell>
        <mxCell id="Bd4KI3bvESrvDeJL_Is7-7" style="edgeStyle=orthogonalEdgeStyle;rounded=0;orthogonalLoop=1;jettySize=auto;html=1;entryX=1;entryY=0.5;entryDx=0;entryDy=0;" parent="1" source="Bd4KI3bvESrvDeJL_Is7-4" target="i1QptdFqVJKg7bUNVQ98-2" edge="1">
          <mxGeometry relative="1" as="geometry">
            <Array as="points">
              <mxPoint x="1060" y="-1870" />
              <mxPoint x="1060" y="-2060" />
            </Array>
          </mxGeometry>
        </mxCell>
        <mxCell id="Bd4KI3bvESrvDeJL_Is7-4" value="Terdaftar menjadi member.&lt;br&gt;Menyimpan&lt;br&gt;data akun" style="rounded=1;whiteSpace=wrap;html=1;absoluteArcSize=1;arcSize=14;strokeWidth=2;" parent="1" vertex="1">
          <mxGeometry x="770" y="-1915" width="90" height="90" as="geometry" />
        </mxCell>
        <mxCell id="muP3zbvoqnLXKiyvPEPB-2" style="edgeStyle=orthogonalEdgeStyle;rounded=0;orthogonalLoop=1;jettySize=auto;html=1;entryX=0;entryY=0.5;entryDx=0;entryDy=0;" parent="1" source="PHjydk8iy5Hm4LvnV3hT-6" target="muP3zbvoqnLXKiyvPEPB-1" edge="1">
          <mxGeometry relative="1" as="geometry" />
        </mxCell>
        <mxCell id="PHjydk8iy5Hm4LvnV3hT-10" value="NO" style="edgeLabel;html=1;align=center;verticalAlign=middle;resizable=0;points=[];" parent="muP3zbvoqnLXKiyvPEPB-2" vertex="1" connectable="0">
          <mxGeometry x="-0.0487" y="1" relative="1" as="geometry">
            <mxPoint x="-1" as="offset" />
          </mxGeometry>
        </mxCell>
        <mxCell id="Bd4KI3bvESrvDeJL_Is7-10" value="Input :&lt;br style=&quot;border-color: var(--border-color);&quot;&gt;Data akun" style="shape=parallelogram;html=1;strokeWidth=2;perimeter=parallelogramPerimeter;whiteSpace=wrap;rounded=1;arcSize=12;size=0.23;" parent="1" vertex="1">
          <mxGeometry x="530" y="-1730" width="116" height="40" as="geometry" />
        </mxCell>
        <mxCell id="muP3zbvoqnLXKiyvPEPB-1" value="Verifikasi/autentikasi" style="rounded=1;whiteSpace=wrap;html=1;absoluteArcSize=1;arcSize=14;strokeWidth=2;" parent="1" vertex="1">
          <mxGeometry x="830" y="-1735" width="130" height="50" as="geometry" />
        </mxCell>
        <mxCell id="RNph3Y_Rprua8D7JoLO8-8" style="edgeStyle=orthogonalEdgeStyle;rounded=0;orthogonalLoop=1;jettySize=auto;html=1;entryX=0;entryY=0.5;entryDx=0;entryDy=0;" parent="1" source="RNph3Y_Rprua8D7JoLO8-1" target="RNph3Y_Rprua8D7JoLO8-6" edge="1">
          <mxGeometry relative="1" as="geometry" />
        </mxCell>
        <mxCell id="zTM0-xpti3C5K-NyyySm-1" style="edgeStyle=orthogonalEdgeStyle;rounded=0;orthogonalLoop=1;jettySize=auto;html=1;entryX=1;entryY=0.5;entryDx=0;entryDy=0;" parent="1" source="RNph3Y_Rprua8D7JoLO8-1" target="i1QptdFqVJKg7bUNVQ98-2" edge="1">
          <mxGeometry relative="1" as="geometry">
            <Array as="points">
              <mxPoint x="1060" y="-1710" />
              <mxPoint x="1060" y="-2060" />
            </Array>
          </mxGeometry>
        </mxCell>
        <mxCell id="zTM0-xpti3C5K-NyyySm-5" value="NO" style="edgeLabel;html=1;align=center;verticalAlign=middle;resizable=0;points=[];" parent="zTM0-xpti3C5K-NyyySm-1" vertex="1" connectable="0">
          <mxGeometry x="-0.6893" y="1" relative="1" as="geometry">
            <mxPoint as="offset" />
          </mxGeometry>
        </mxCell>
        <mxCell id="RNph3Y_Rprua8D7JoLO8-1" value="Login berhasil?" style="strokeWidth=2;html=1;shape=mxgraph.flowchart.decision;whiteSpace=wrap;" parent="1" vertex="1">
          <mxGeometry x="1000" y="-1745" width="120" height="70" as="geometry" />
        </mxCell>
        <mxCell id="RNph3Y_Rprua8D7JoLO8-2" style="edgeStyle=orthogonalEdgeStyle;rounded=0;orthogonalLoop=1;jettySize=auto;html=1;entryX=0;entryY=0.5;entryDx=0;entryDy=0;entryPerimeter=0;" parent="1" source="muP3zbvoqnLXKiyvPEPB-1" target="RNph3Y_Rprua8D7JoLO8-1" edge="1">
          <mxGeometry relative="1" as="geometry" />
        </mxCell>
        <mxCell id="RNph3Y_Rprua8D7JoLO8-6" value="MENU&lt;br&gt;UTAMA" style="verticalLabelPosition=middle;verticalAlign=middle;html=1;shape=offPageConnector;rounded=0;size=0.5;align=center;labelPosition=center;" parent="1" vertex="1">
          <mxGeometry x="1350" y="-1740" width="60" height="60" as="geometry" />
        </mxCell>
        <mxCell id="TiQICBpBHZjgXO6E-n1i-1" value="END" style="strokeWidth=2;html=1;shape=mxgraph.flowchart.start_1;whiteSpace=wrap;" parent="1" vertex="1">
          <mxGeometry x="520" y="-1595" width="90" height="50" as="geometry" />
        </mxCell>
        <mxCell id="TiQICBpBHZjgXO6E-n1i-2" style="edgeStyle=orthogonalEdgeStyle;rounded=0;orthogonalLoop=1;jettySize=auto;html=1;entryX=0;entryY=0.5;entryDx=0;entryDy=0;entryPerimeter=0;" parent="1" source="YhA6OgRteMt7KzuuNI6r-2" target="TiQICBpBHZjgXO6E-n1i-1" edge="1">
          <mxGeometry relative="1" as="geometry" />
        </mxCell>
        <mxCell id="TiQICBpBHZjgXO6E-n1i-5" value="YES" style="edgeLabel;html=1;align=center;verticalAlign=middle;resizable=0;points=[];" parent="TiQICBpBHZjgXO6E-n1i-2" vertex="1" connectable="0">
          <mxGeometry x="-0.2" y="1" relative="1" as="geometry">
            <mxPoint as="offset" />
          </mxGeometry>
        </mxCell>
        <mxCell id="6NVTsk6_8RJC5YXjbQgf-2" style="edgeStyle=orthogonalEdgeStyle;rounded=0;orthogonalLoop=1;jettySize=auto;html=1;entryX=0;entryY=0.5;entryDx=0;entryDy=0;" parent="1" source="6NVTsk6_8RJC5YXjbQgf-1" target="i1QptdFqVJKg7bUNVQ98-2" edge="1">
          <mxGeometry relative="1" as="geometry" />
        </mxCell>
        <mxCell id="6NVTsk6_8RJC5YXjbQgf-1" value="MENU&lt;br&gt;AKUN" style="verticalLabelPosition=middle;verticalAlign=middle;html=1;shape=offPageConnector;rounded=0;size=0.5;align=center;labelPosition=center;" parent="1" vertex="1">
          <mxGeometry x="130" y="-2090" width="60" height="60" as="geometry" />
        </mxCell>
        <mxCell id="PHjydk8iy5Hm4LvnV3hT-2" value="" style="edgeStyle=orthogonalEdgeStyle;rounded=0;orthogonalLoop=1;jettySize=auto;html=1;exitX=1;exitY=0.5;exitDx=0;exitDy=0;entryX=0;entryY=0.5;entryDx=0;entryDy=0;" parent="1" source="Bd4KI3bvESrvDeJL_Is7-2" target="PHjydk8iy5Hm4LvnV3hT-1" edge="1">
          <mxGeometry relative="1" as="geometry">
            <mxPoint x="623" y="-1870" as="sourcePoint" />
            <mxPoint x="770" y="-1870" as="targetPoint" />
          </mxGeometry>
        </mxCell>
        <mxCell id="PHjydk8iy5Hm4LvnV3hT-1" value="Jika panjang&lt;br&gt;inputan =&amp;gt; 4" style="strokeWidth=2;html=1;shape=mxgraph.flowchart.decision;whiteSpace=wrap;" parent="1" vertex="1">
          <mxGeometry x="620" y="-1920" width="100" height="100" as="geometry" />
        </mxCell>
        <mxCell id="PHjydk8iy5Hm4LvnV3hT-3" style="edgeStyle=orthogonalEdgeStyle;rounded=0;orthogonalLoop=1;jettySize=auto;html=1;exitX=0.5;exitY=1;exitDx=0;exitDy=0;exitPerimeter=0;entryX=0.397;entryY=1.019;entryDx=0;entryDy=0;entryPerimeter=0;" parent="1" source="PHjydk8iy5Hm4LvnV3hT-1" target="Bd4KI3bvESrvDeJL_Is7-2" edge="1">
          <mxGeometry relative="1" as="geometry" />
        </mxCell>
        <mxCell id="PHjydk8iy5Hm4LvnV3hT-4" value="NO" style="edgeLabel;html=1;align=center;verticalAlign=middle;resizable=0;points=[];" parent="PHjydk8iy5Hm4LvnV3hT-3" vertex="1" connectable="0">
          <mxGeometry x="-0.3282" relative="1" as="geometry">
            <mxPoint x="1" as="offset" />
          </mxGeometry>
        </mxCell>
        <mxCell id="PHjydk8iy5Hm4LvnV3hT-7" value="" style="edgeStyle=orthogonalEdgeStyle;rounded=0;orthogonalLoop=1;jettySize=auto;html=1;entryX=0;entryY=0.5;entryDx=0;entryDy=0;" parent="1" source="Bd4KI3bvESrvDeJL_Is7-10" target="PHjydk8iy5Hm4LvnV3hT-6" edge="1">
          <mxGeometry relative="1" as="geometry">
            <mxPoint x="633" y="-1710" as="sourcePoint" />
            <mxPoint x="830" y="-1710" as="targetPoint" />
          </mxGeometry>
        </mxCell>
        <mxCell id="PHjydk8iy5Hm4LvnV3hT-6" value="salah input &amp;gt;= 3" style="strokeWidth=2;html=1;shape=mxgraph.flowchart.decision;whiteSpace=wrap;" parent="1" vertex="1">
          <mxGeometry x="670" y="-1760" width="100" height="100" as="geometry" />
        </mxCell>
        <mxCell id="PHjydk8iy5Hm4LvnV3hT-8" style="edgeStyle=orthogonalEdgeStyle;rounded=0;orthogonalLoop=1;jettySize=auto;html=1;exitX=0.5;exitY=1;exitDx=0;exitDy=0;exitPerimeter=0;entryX=1;entryY=0.5;entryDx=0;entryDy=0;entryPerimeter=0;" parent="1" source="PHjydk8iy5Hm4LvnV3hT-6" target="TiQICBpBHZjgXO6E-n1i-1" edge="1">
          <mxGeometry relative="1" as="geometry" />
        </mxCell>
        <mxCell id="PHjydk8iy5Hm4LvnV3hT-9" value="YES" style="edgeLabel;html=1;align=center;verticalAlign=middle;resizable=0;points=[];" parent="PHjydk8iy5Hm4LvnV3hT-8" vertex="1" connectable="0">
          <mxGeometry x="-0.4464" y="2" relative="1" as="geometry">
            <mxPoint as="offset" />
          </mxGeometry>
        </mxCell>
      </root>
    </mxGraphModel>
  </diagram>
  <diagram id="c8MsdPchSLwTzSasn4CE" name="MENU UTAMA">
    <mxGraphModel dx="801" dy="4010" grid="1" gridSize="10" guides="1" tooltips="1" connect="1" arrows="1" fold="1" page="1" pageScale="1" pageWidth="850" pageHeight="1100" math="0" shadow="0">
      <root>
        <mxCell id="0" />
        <mxCell id="1" parent="0" />
        <mxCell id="55iRGE-QmXmswaMHTD7d-46" style="edgeStyle=orthogonalEdgeStyle;rounded=0;orthogonalLoop=1;jettySize=auto;html=1;exitX=0.5;exitY=1;exitDx=0;exitDy=0;exitPerimeter=0;entryX=0.5;entryY=1;entryDx=0;entryDy=0;" parent="1" edge="1">
          <mxGeometry relative="1" as="geometry">
            <mxPoint x="2126.88" y="-910" as="sourcePoint" />
            <mxPoint x="1463.13" y="-935" as="targetPoint" />
            <Array as="points">
              <mxPoint x="2126.88" y="-870" />
              <mxPoint x="1462.88" y="-870" />
            </Array>
          </mxGeometry>
        </mxCell>
        <mxCell id="55iRGE-QmXmswaMHTD7d-47" value="NO" style="edgeLabel;html=1;align=center;verticalAlign=middle;resizable=0;points=[];" parent="55iRGE-QmXmswaMHTD7d-46" vertex="1" connectable="0">
          <mxGeometry x="-0.5555" relative="1" as="geometry">
            <mxPoint as="offset" />
          </mxGeometry>
        </mxCell>
        <mxCell id="VWAwe9ZkNXVs6dnI9ejP-1" value="MENU&lt;br&gt;UTAMA" style="verticalLabelPosition=middle;verticalAlign=middle;html=1;shape=offPageConnector;rounded=0;size=0.5;align=center;labelPosition=center;" parent="1" vertex="1">
          <mxGeometry x="1636.25" y="-2640" width="60" height="60" as="geometry" />
        </mxCell>
        <mxCell id="6YtQBjXdQORXF6mnyOq7-2" style="edgeStyle=orthogonalEdgeStyle;rounded=0;orthogonalLoop=1;jettySize=auto;html=1;entryX=0;entryY=0.5;entryDx=0;entryDy=0;entryPerimeter=0;" parent="1" source="Ak1q0RXvYgdWRL72e2se-1" target="xk0f2dNad-sJVl7q87qp-55" edge="1">
          <mxGeometry relative="1" as="geometry">
            <mxPoint x="1796.2499999999998" y="-2515" as="targetPoint" />
          </mxGeometry>
        </mxCell>
        <mxCell id="J4htUw2u4dFuZCWiD5Bl-4" value="YES" style="edgeLabel;html=1;align=center;verticalAlign=middle;resizable=0;points=[];" parent="6YtQBjXdQORXF6mnyOq7-2" vertex="1" connectable="0">
          <mxGeometry x="-0.0249" y="-2" relative="1" as="geometry">
            <mxPoint as="offset" />
          </mxGeometry>
        </mxCell>
        <mxCell id="Ak1q0RXvYgdWRL72e2se-1" value="ADMIN" style="strokeWidth=2;html=1;shape=mxgraph.flowchart.decision;whiteSpace=wrap;" parent="1" vertex="1">
          <mxGeometry x="1621.25" y="-2540" width="90" height="50" as="geometry" />
        </mxCell>
        <mxCell id="Ak1q0RXvYgdWRL72e2se-2" style="edgeStyle=orthogonalEdgeStyle;rounded=0;orthogonalLoop=1;jettySize=auto;html=1;entryX=0.5;entryY=0;entryDx=0;entryDy=0;entryPerimeter=0;" parent="1" source="VWAwe9ZkNXVs6dnI9ejP-1" target="Ak1q0RXvYgdWRL72e2se-1" edge="1">
          <mxGeometry relative="1" as="geometry" />
        </mxCell>
        <mxCell id="J4htUw2u4dFuZCWiD5Bl-2" value="Output :&lt;br&gt;Menu Member&lt;br&gt;&lt;div style=&quot;border-color: var(--border-color); text-align: left;&quot;&gt;&lt;div style=&quot;border-color: var(--border-color);&quot;&gt;&lt;span style=&quot;border-color: var(--border-color); background-color: initial;&quot;&gt;1. Isi keranjang&lt;/span&gt;&lt;/div&gt;&lt;div style=&quot;border-color: var(--border-color);&quot;&gt;&lt;span style=&quot;border-color: var(--border-color); background-color: initial;&quot;&gt;2. Cek keranjang&lt;/span&gt;&lt;/div&gt;&lt;div style=&quot;border-color: var(--border-color);&quot;&gt;&lt;span style=&quot;border-color: var(--border-color); background-color: initial;&quot;&gt;3. Ubah jumlah barang&lt;/span&gt;&lt;/div&gt;&lt;div style=&quot;border-color: var(--border-color);&quot;&gt;&lt;span style=&quot;border-color: var(--border-color); background-color: initial;&quot;&gt;4. Hapus barang keranjang&lt;/span&gt;&lt;/div&gt;&lt;div style=&quot;border-color: var(--border-color);&quot;&gt;&lt;span style=&quot;border-color: var(--border-color); background-color: initial;&quot;&gt;5. Bayar&lt;/span&gt;&lt;/div&gt;&lt;div style=&quot;border-color: var(--border-color);&quot;&gt;&lt;span style=&quot;border-color: var(--border-color); background-color: initial;&quot;&gt;6. Logout akun&lt;/span&gt;&lt;/div&gt;&lt;/div&gt;" style="shape=parallelogram;html=1;strokeWidth=2;perimeter=parallelogramPerimeter;whiteSpace=wrap;rounded=1;arcSize=12;size=0.23;" parent="1" vertex="1">
          <mxGeometry x="906.25" y="-1130" width="240" height="120" as="geometry" />
        </mxCell>
        <mxCell id="dzPvkqmJKDAEyehiaQdK-2" style="edgeStyle=orthogonalEdgeStyle;rounded=0;orthogonalLoop=1;jettySize=auto;html=1;" parent="1" source="Xll2JjK4ReMIhPJMHD93-1" target="dzPvkqmJKDAEyehiaQdK-1" edge="1">
          <mxGeometry relative="1" as="geometry" />
        </mxCell>
        <mxCell id="SQljijMHcgAObp0ZF5zH-2" value="YES" style="edgeLabel;html=1;align=center;verticalAlign=middle;resizable=0;points=[];" parent="dzPvkqmJKDAEyehiaQdK-2" vertex="1" connectable="0">
          <mxGeometry x="0.0808" y="2" relative="1" as="geometry">
            <mxPoint as="offset" />
          </mxGeometry>
        </mxCell>
        <mxCell id="Xll2JjK4ReMIhPJMHD93-1" value="Pilihan == 1" style="strokeWidth=2;html=1;shape=mxgraph.flowchart.decision;whiteSpace=wrap;" parent="1" vertex="1">
          <mxGeometry x="976.25" y="-970" width="100" height="60" as="geometry" />
        </mxCell>
        <mxCell id="SQljijMHcgAObp0ZF5zH-5" style="edgeStyle=orthogonalEdgeStyle;rounded=0;orthogonalLoop=1;jettySize=auto;html=1;entryX=0;entryY=0.5;entryDx=0;entryDy=0;" parent="1" source="Xll2JjK4ReMIhPJMHD93-2" target="SQljijMHcgAObp0ZF5zH-3" edge="1">
          <mxGeometry relative="1" as="geometry" />
        </mxCell>
        <mxCell id="SQljijMHcgAObp0ZF5zH-6" value="YES" style="edgeLabel;html=1;align=center;verticalAlign=middle;resizable=0;points=[];" parent="SQljijMHcgAObp0ZF5zH-5" vertex="1" connectable="0">
          <mxGeometry x="-0.3166" y="-3" relative="1" as="geometry">
            <mxPoint as="offset" />
          </mxGeometry>
        </mxCell>
        <mxCell id="Xll2JjK4ReMIhPJMHD93-2" value="Pilihan == 2" style="strokeWidth=2;html=1;shape=mxgraph.flowchart.decision;whiteSpace=wrap;" parent="1" vertex="1">
          <mxGeometry x="976.25" y="-870" width="100" height="60" as="geometry" />
        </mxCell>
        <mxCell id="SQljijMHcgAObp0ZF5zH-9" style="edgeStyle=orthogonalEdgeStyle;rounded=0;orthogonalLoop=1;jettySize=auto;html=1;entryX=0;entryY=0.5;entryDx=0;entryDy=0;" parent="1" source="Xll2JjK4ReMIhPJMHD93-3" target="SQljijMHcgAObp0ZF5zH-8" edge="1">
          <mxGeometry relative="1" as="geometry" />
        </mxCell>
        <mxCell id="SQljijMHcgAObp0ZF5zH-10" value="YES" style="edgeLabel;html=1;align=center;verticalAlign=middle;resizable=0;points=[];" parent="SQljijMHcgAObp0ZF5zH-9" vertex="1" connectable="0">
          <mxGeometry x="0.0172" y="3" relative="1" as="geometry">
            <mxPoint as="offset" />
          </mxGeometry>
        </mxCell>
        <mxCell id="Xll2JjK4ReMIhPJMHD93-3" value="Pilihan == 3" style="strokeWidth=2;html=1;shape=mxgraph.flowchart.decision;whiteSpace=wrap;" parent="1" vertex="1">
          <mxGeometry x="976.25" y="-740" width="100" height="60" as="geometry" />
        </mxCell>
        <mxCell id="Xll2JjK4ReMIhPJMHD93-4" style="edgeStyle=orthogonalEdgeStyle;rounded=0;orthogonalLoop=1;jettySize=auto;html=1;entryX=0.5;entryY=0;entryDx=0;entryDy=0;entryPerimeter=0;" parent="1" source="J4htUw2u4dFuZCWiD5Bl-2" target="Xll2JjK4ReMIhPJMHD93-1" edge="1">
          <mxGeometry relative="1" as="geometry" />
        </mxCell>
        <mxCell id="Xll2JjK4ReMIhPJMHD93-5" style="edgeStyle=orthogonalEdgeStyle;rounded=0;orthogonalLoop=1;jettySize=auto;html=1;entryX=0.5;entryY=0;entryDx=0;entryDy=0;entryPerimeter=0;" parent="1" source="Xll2JjK4ReMIhPJMHD93-1" target="Xll2JjK4ReMIhPJMHD93-2" edge="1">
          <mxGeometry relative="1" as="geometry" />
        </mxCell>
        <mxCell id="Xll2JjK4ReMIhPJMHD93-13" value="NO" style="edgeLabel;html=1;align=center;verticalAlign=middle;resizable=0;points=[];" parent="Xll2JjK4ReMIhPJMHD93-5" vertex="1" connectable="0">
          <mxGeometry x="-0.38" y="2" relative="1" as="geometry">
            <mxPoint as="offset" />
          </mxGeometry>
        </mxCell>
        <mxCell id="Xll2JjK4ReMIhPJMHD93-6" style="edgeStyle=orthogonalEdgeStyle;rounded=0;orthogonalLoop=1;jettySize=auto;html=1;entryX=0.5;entryY=0;entryDx=0;entryDy=0;entryPerimeter=0;" parent="1" source="Xll2JjK4ReMIhPJMHD93-2" target="Xll2JjK4ReMIhPJMHD93-3" edge="1">
          <mxGeometry relative="1" as="geometry" />
        </mxCell>
        <mxCell id="Xll2JjK4ReMIhPJMHD93-14" value="NO" style="edgeLabel;html=1;align=center;verticalAlign=middle;resizable=0;points=[];" parent="Xll2JjK4ReMIhPJMHD93-6" vertex="1" connectable="0">
          <mxGeometry x="-0.03" y="-1" relative="1" as="geometry">
            <mxPoint as="offset" />
          </mxGeometry>
        </mxCell>
        <mxCell id="SQljijMHcgAObp0ZF5zH-12" style="edgeStyle=orthogonalEdgeStyle;rounded=0;orthogonalLoop=1;jettySize=auto;html=1;entryX=0;entryY=0.5;entryDx=0;entryDy=0;" parent="1" source="Xll2JjK4ReMIhPJMHD93-7" target="SQljijMHcgAObp0ZF5zH-11" edge="1">
          <mxGeometry relative="1" as="geometry" />
        </mxCell>
        <mxCell id="SQljijMHcgAObp0ZF5zH-13" value="YES" style="edgeLabel;html=1;align=center;verticalAlign=middle;resizable=0;points=[];" parent="SQljijMHcgAObp0ZF5zH-12" vertex="1" connectable="0">
          <mxGeometry x="-0.1947" y="1" relative="1" as="geometry">
            <mxPoint as="offset" />
          </mxGeometry>
        </mxCell>
        <mxCell id="Xll2JjK4ReMIhPJMHD93-7" value="Pilihan == 4" style="strokeWidth=2;html=1;shape=mxgraph.flowchart.decision;whiteSpace=wrap;" parent="1" vertex="1">
          <mxGeometry x="976.25" y="-600" width="100" height="60" as="geometry" />
        </mxCell>
        <mxCell id="Xll2JjK4ReMIhPJMHD93-8" style="edgeStyle=orthogonalEdgeStyle;rounded=0;orthogonalLoop=1;jettySize=auto;html=1;entryX=0.5;entryY=0;entryDx=0;entryDy=0;entryPerimeter=0;" parent="1" source="Xll2JjK4ReMIhPJMHD93-3" target="Xll2JjK4ReMIhPJMHD93-7" edge="1">
          <mxGeometry relative="1" as="geometry" />
        </mxCell>
        <mxCell id="Xll2JjK4ReMIhPJMHD93-15" value="NO" style="edgeLabel;html=1;align=center;verticalAlign=middle;resizable=0;points=[];" parent="Xll2JjK4ReMIhPJMHD93-8" vertex="1" connectable="0">
          <mxGeometry x="-0.28" y="2" relative="1" as="geometry">
            <mxPoint as="offset" />
          </mxGeometry>
        </mxCell>
        <mxCell id="SQljijMHcgAObp0ZF5zH-51" style="edgeStyle=orthogonalEdgeStyle;rounded=0;orthogonalLoop=1;jettySize=auto;html=1;" parent="1" source="Xll2JjK4ReMIhPJMHD93-9" target="SQljijMHcgAObp0ZF5zH-50" edge="1">
          <mxGeometry relative="1" as="geometry" />
        </mxCell>
        <mxCell id="SQljijMHcgAObp0ZF5zH-61" value="YES" style="edgeLabel;html=1;align=center;verticalAlign=middle;resizable=0;points=[];" parent="SQljijMHcgAObp0ZF5zH-51" vertex="1" connectable="0">
          <mxGeometry x="-0.1069" y="1" relative="1" as="geometry">
            <mxPoint x="-1" as="offset" />
          </mxGeometry>
        </mxCell>
        <mxCell id="Xll2JjK4ReMIhPJMHD93-9" value="Pilihan == 5" style="strokeWidth=2;html=1;shape=mxgraph.flowchart.decision;whiteSpace=wrap;" parent="1" vertex="1">
          <mxGeometry x="976.25" y="-445.71000000000004" width="100" height="60" as="geometry" />
        </mxCell>
        <mxCell id="-D9XLMhr18e0UPfaL4OE-2" style="edgeStyle=orthogonalEdgeStyle;rounded=0;orthogonalLoop=1;jettySize=auto;html=1;entryX=0.5;entryY=0;entryDx=0;entryDy=0;" parent="1" source="Xll2JjK4ReMIhPJMHD93-10" target="-D9XLMhr18e0UPfaL4OE-1" edge="1">
          <mxGeometry relative="1" as="geometry" />
        </mxCell>
        <mxCell id="-D9XLMhr18e0UPfaL4OE-3" value="YES" style="edgeLabel;html=1;align=center;verticalAlign=middle;resizable=0;points=[];" parent="-D9XLMhr18e0UPfaL4OE-2" vertex="1" connectable="0">
          <mxGeometry x="-0.45" y="2" relative="1" as="geometry">
            <mxPoint x="-2" y="9" as="offset" />
          </mxGeometry>
        </mxCell>
        <mxCell id="SQljijMHcgAObp0ZF5zH-59" style="edgeStyle=orthogonalEdgeStyle;rounded=0;orthogonalLoop=1;jettySize=auto;html=1;entryX=1;entryY=0.5;entryDx=0;entryDy=0;" parent="1" edge="1" target="J4htUw2u4dFuZCWiD5Bl-2">
          <mxGeometry relative="1" as="geometry">
            <Array as="points">
              <mxPoint x="2310" y="-270" />
              <mxPoint x="2310" y="-1070" />
            </Array>
            <mxPoint x="1076.25" y="-270" as="sourcePoint" />
            <mxPoint x="1115.7625000000003" y="-1060" as="targetPoint" />
          </mxGeometry>
        </mxCell>
        <mxCell id="SQljijMHcgAObp0ZF5zH-60" value="NO" style="edgeLabel;html=1;align=center;verticalAlign=middle;resizable=0;points=[];" parent="SQljijMHcgAObp0ZF5zH-59" vertex="1" connectable="0">
          <mxGeometry x="-0.9704" y="-2" relative="1" as="geometry">
            <mxPoint as="offset" />
          </mxGeometry>
        </mxCell>
        <mxCell id="Xll2JjK4ReMIhPJMHD93-10" value="Pilihan == 6" style="strokeWidth=2;html=1;shape=mxgraph.flowchart.decision;whiteSpace=wrap;" parent="1" vertex="1">
          <mxGeometry x="976.25" y="-300.00000000000006" width="100" height="60" as="geometry" />
        </mxCell>
        <mxCell id="Xll2JjK4ReMIhPJMHD93-11" style="edgeStyle=orthogonalEdgeStyle;rounded=0;orthogonalLoop=1;jettySize=auto;html=1;entryX=0.5;entryY=0;entryDx=0;entryDy=0;entryPerimeter=0;" parent="1" edge="1">
          <mxGeometry relative="1" as="geometry">
            <mxPoint x="1027.25" y="-539" as="sourcePoint" />
            <mxPoint x="1027.25" y="-444.71000000000004" as="targetPoint" />
          </mxGeometry>
        </mxCell>
        <mxCell id="Xll2JjK4ReMIhPJMHD93-16" value="NO" style="edgeLabel;html=1;align=center;verticalAlign=middle;resizable=0;points=[];" parent="Xll2JjK4ReMIhPJMHD93-11" vertex="1" connectable="0">
          <mxGeometry x="-0.18" y="-3" relative="1" as="geometry">
            <mxPoint y="1" as="offset" />
          </mxGeometry>
        </mxCell>
        <mxCell id="Xll2JjK4ReMIhPJMHD93-12" style="edgeStyle=orthogonalEdgeStyle;rounded=0;orthogonalLoop=1;jettySize=auto;html=1;entryX=0.5;entryY=0;entryDx=0;entryDy=0;entryPerimeter=0;" parent="1" source="Xll2JjK4ReMIhPJMHD93-9" target="Xll2JjK4ReMIhPJMHD93-10" edge="1">
          <mxGeometry relative="1" as="geometry" />
        </mxCell>
        <mxCell id="Xll2JjK4ReMIhPJMHD93-17" value="NO" style="edgeLabel;html=1;align=center;verticalAlign=middle;resizable=0;points=[];" parent="Xll2JjK4ReMIhPJMHD93-12" vertex="1" connectable="0">
          <mxGeometry x="-0.23" y="-1" relative="1" as="geometry">
            <mxPoint x="1" y="2" as="offset" />
          </mxGeometry>
        </mxCell>
        <mxCell id="-D9XLMhr18e0UPfaL4OE-1" value="MENU&lt;br&gt;AKUN" style="verticalLabelPosition=middle;verticalAlign=middle;html=1;shape=offPageConnector;rounded=0;size=0.5;align=center;labelPosition=center;" parent="1" vertex="1">
          <mxGeometry x="996.25" y="-180.00000000000006" width="60" height="60" as="geometry" />
        </mxCell>
        <mxCell id="dzPvkqmJKDAEyehiaQdK-4" style="edgeStyle=orthogonalEdgeStyle;rounded=0;orthogonalLoop=1;jettySize=auto;html=1;" parent="1" source="dzPvkqmJKDAEyehiaQdK-1" target="dzPvkqmJKDAEyehiaQdK-3" edge="1">
          <mxGeometry relative="1" as="geometry" />
        </mxCell>
        <mxCell id="dzPvkqmJKDAEyehiaQdK-1" value="Output :&lt;br&gt;Menampilkan barang dan&lt;br&gt;harga barang" style="shape=parallelogram;html=1;strokeWidth=2;perimeter=parallelogramPerimeter;whiteSpace=wrap;rounded=1;arcSize=12;size=0.23;" parent="1" vertex="1">
          <mxGeometry x="1128.75" y="-970" width="200" height="60" as="geometry" />
        </mxCell>
        <mxCell id="dzPvkqmJKDAEyehiaQdK-3" value="Input :&lt;br&gt;Mengisi keranjang &lt;br&gt;dengan kode" style="shape=parallelogram;html=1;strokeWidth=2;perimeter=parallelogramPerimeter;whiteSpace=wrap;rounded=1;arcSize=12;size=0.23;" parent="1" vertex="1">
          <mxGeometry x="1376.25" y="-965" width="170" height="50" as="geometry" />
        </mxCell>
        <mxCell id="SQljijMHcgAObp0ZF5zH-1" style="edgeStyle=orthogonalEdgeStyle;rounded=0;orthogonalLoop=1;jettySize=auto;html=1;entryX=1;entryY=0.5;entryDx=0;entryDy=0;" parent="1" source="dzPvkqmJKDAEyehiaQdK-6" target="J4htUw2u4dFuZCWiD5Bl-2" edge="1">
          <mxGeometry relative="1" as="geometry">
            <Array as="points">
              <mxPoint x="2310" y="-940" />
              <mxPoint x="2310" y="-1070" />
            </Array>
          </mxGeometry>
        </mxCell>
        <mxCell id="dzPvkqmJKDAEyehiaQdK-6" value="Menyimpan&lt;br&gt;data keranjang" style="rounded=1;whiteSpace=wrap;html=1;absoluteArcSize=1;arcSize=14;strokeWidth=2;" parent="1" vertex="1">
          <mxGeometry x="2222.5" y="-975" width="70" height="70" as="geometry" />
        </mxCell>
        <mxCell id="SQljijMHcgAObp0ZF5zH-7" style="edgeStyle=orthogonalEdgeStyle;rounded=0;orthogonalLoop=1;jettySize=auto;html=1;entryX=1;entryY=0.5;entryDx=0;entryDy=0;" parent="1" source="SQljijMHcgAObp0ZF5zH-3" target="J4htUw2u4dFuZCWiD5Bl-2" edge="1">
          <mxGeometry relative="1" as="geometry">
            <Array as="points">
              <mxPoint x="2310" y="-840" />
              <mxPoint x="2310" y="-1070" />
            </Array>
          </mxGeometry>
        </mxCell>
        <mxCell id="SQljijMHcgAObp0ZF5zH-3" value="Output :&lt;br&gt;Menampilkan data &lt;br&gt;keranjang dan harga" style="shape=parallelogram;html=1;strokeWidth=2;perimeter=parallelogramPerimeter;whiteSpace=wrap;rounded=1;arcSize=12;size=0.23;" parent="1" vertex="1">
          <mxGeometry x="1128.75" y="-870" width="200" height="60" as="geometry" />
        </mxCell>
        <mxCell id="SQljijMHcgAObp0ZF5zH-33" style="edgeStyle=orthogonalEdgeStyle;rounded=0;orthogonalLoop=1;jettySize=auto;html=1;exitX=1;exitY=0.5;exitDx=0;exitDy=0;entryX=0;entryY=0.5;entryDx=0;entryDy=0;" parent="1" source="SQljijMHcgAObp0ZF5zH-8" target="SQljijMHcgAObp0ZF5zH-32" edge="1">
          <mxGeometry relative="1" as="geometry" />
        </mxCell>
        <mxCell id="SQljijMHcgAObp0ZF5zH-8" value="Output :&lt;br&gt;Menampilkan data &lt;br&gt;keranjang dan harga" style="shape=parallelogram;html=1;strokeWidth=2;perimeter=parallelogramPerimeter;whiteSpace=wrap;rounded=1;arcSize=12;size=0.23;" parent="1" vertex="1">
          <mxGeometry x="1128.75" y="-740" width="200" height="60" as="geometry" />
        </mxCell>
        <mxCell id="SQljijMHcgAObp0ZF5zH-16" style="edgeStyle=orthogonalEdgeStyle;rounded=0;orthogonalLoop=1;jettySize=auto;html=1;entryX=0;entryY=0.5;entryDx=0;entryDy=0;" parent="1" source="SQljijMHcgAObp0ZF5zH-11" target="SQljijMHcgAObp0ZF5zH-14" edge="1">
          <mxGeometry relative="1" as="geometry" />
        </mxCell>
        <mxCell id="SQljijMHcgAObp0ZF5zH-11" value="Output :&lt;br&gt;Menampilkan data &lt;br&gt;keranjang dan harga" style="shape=parallelogram;html=1;strokeWidth=2;perimeter=parallelogramPerimeter;whiteSpace=wrap;rounded=1;arcSize=12;size=0.23;" parent="1" vertex="1">
          <mxGeometry x="1128.75" y="-600" width="200" height="60" as="geometry" />
        </mxCell>
        <mxCell id="SQljijMHcgAObp0ZF5zH-14" value="Input :&lt;br&gt;Barang yang ingin&lt;br&gt;dihapus dari keranjang" style="shape=parallelogram;html=1;strokeWidth=2;perimeter=parallelogramPerimeter;whiteSpace=wrap;rounded=1;arcSize=12;size=0.23;" parent="1" vertex="1">
          <mxGeometry x="1376.25" y="-595" width="220" height="50" as="geometry" />
        </mxCell>
        <mxCell id="SQljijMHcgAObp0ZF5zH-26" style="edgeStyle=orthogonalEdgeStyle;rounded=0;orthogonalLoop=1;jettySize=auto;html=1;entryX=0;entryY=0.5;entryDx=0;entryDy=0;" parent="1" source="SQljijMHcgAObp0ZF5zH-18" target="SQljijMHcgAObp0ZF5zH-25" edge="1">
          <mxGeometry relative="1" as="geometry" />
        </mxCell>
        <mxCell id="SQljijMHcgAObp0ZF5zH-29" value="YES" style="edgeLabel;html=1;align=center;verticalAlign=middle;resizable=0;points=[];" parent="SQljijMHcgAObp0ZF5zH-26" vertex="1" connectable="0">
          <mxGeometry x="-0.04" y="-1" relative="1" as="geometry">
            <mxPoint x="-38" y="-1" as="offset" />
          </mxGeometry>
        </mxCell>
        <mxCell id="SQljijMHcgAObp0ZF5zH-18" value="Ada" style="strokeWidth=2;html=1;shape=mxgraph.flowchart.decision;whiteSpace=wrap;" parent="1" vertex="1">
          <mxGeometry x="1890" y="-610" width="130" height="80" as="geometry" />
        </mxCell>
        <mxCell id="SQljijMHcgAObp0ZF5zH-19" style="edgeStyle=orthogonalEdgeStyle;rounded=0;orthogonalLoop=1;jettySize=auto;html=1;entryX=0;entryY=0.5;entryDx=0;entryDy=0;entryPerimeter=0;" parent="1" source="SQljijMHcgAObp0ZF5zH-14" target="SQljijMHcgAObp0ZF5zH-18" edge="1">
          <mxGeometry relative="1" as="geometry" />
        </mxCell>
        <mxCell id="SQljijMHcgAObp0ZF5zH-35" style="edgeStyle=orthogonalEdgeStyle;rounded=0;orthogonalLoop=1;jettySize=auto;html=1;exitX=1;exitY=0.5;exitDx=0;exitDy=0;" parent="1" source="55iRGE-QmXmswaMHTD7d-50" target="SQljijMHcgAObp0ZF5zH-34" edge="1">
          <mxGeometry relative="1" as="geometry" />
        </mxCell>
        <mxCell id="SQljijMHcgAObp0ZF5zH-32" value="Input :&lt;br&gt;Kode dari barang yang ingin&lt;br&gt;diubah jumlahnya" style="shape=parallelogram;html=1;strokeWidth=2;perimeter=parallelogramPerimeter;whiteSpace=wrap;rounded=1;arcSize=12;size=0.23;" parent="1" vertex="1">
          <mxGeometry x="1346.25" y="-735" width="220" height="50" as="geometry" />
        </mxCell>
        <mxCell id="SQljijMHcgAObp0ZF5zH-40" style="edgeStyle=orthogonalEdgeStyle;rounded=0;orthogonalLoop=1;jettySize=auto;html=1;entryX=1;entryY=0.5;entryDx=0;entryDy=0;" parent="1" source="SQljijMHcgAObp0ZF5zH-34" target="J4htUw2u4dFuZCWiD5Bl-2" edge="1">
          <mxGeometry relative="1" as="geometry">
            <Array as="points">
              <mxPoint x="2101" y="-640" />
              <mxPoint x="2310" y="-640" />
              <mxPoint x="2310" y="-1070" />
            </Array>
          </mxGeometry>
        </mxCell>
        <mxCell id="SQljijMHcgAObp0ZF5zH-41" value="NO" style="edgeLabel;html=1;align=center;verticalAlign=middle;resizable=0;points=[];" parent="SQljijMHcgAObp0ZF5zH-40" vertex="1" connectable="0">
          <mxGeometry x="-0.9806" y="-1" relative="1" as="geometry">
            <mxPoint as="offset" />
          </mxGeometry>
        </mxCell>
        <mxCell id="SQljijMHcgAObp0ZF5zH-34" value="ada" style="strokeWidth=2;html=1;shape=mxgraph.flowchart.decision;whiteSpace=wrap;" parent="1" vertex="1">
          <mxGeometry x="2036.25" y="-750" width="130" height="80" as="geometry" />
        </mxCell>
        <mxCell id="SQljijMHcgAObp0ZF5zH-44" style="edgeStyle=orthogonalEdgeStyle;rounded=0;orthogonalLoop=1;jettySize=auto;html=1;entryX=0.5;entryY=0;entryDx=0;entryDy=0;" parent="1" source="SQljijMHcgAObp0ZF5zH-36" target="SQljijMHcgAObp0ZF5zH-43" edge="1">
          <mxGeometry relative="1" as="geometry" />
        </mxCell>
        <mxCell id="SQljijMHcgAObp0ZF5zH-36" value="L3" style="verticalLabelPosition=middle;verticalAlign=middle;html=1;shape=mxgraph.flowchart.on-page_reference;labelPosition=center;align=center;" parent="1" vertex="1">
          <mxGeometry x="2400" y="-1060" width="60" height="60" as="geometry" />
        </mxCell>
        <mxCell id="SQljijMHcgAObp0ZF5zH-37" value="L3" style="verticalLabelPosition=middle;verticalAlign=middle;html=1;shape=mxgraph.flowchart.on-page_reference;labelPosition=center;align=center;" parent="1" vertex="1">
          <mxGeometry x="2210" y="-740" width="60" height="60" as="geometry" />
        </mxCell>
        <mxCell id="SQljijMHcgAObp0ZF5zH-38" style="edgeStyle=orthogonalEdgeStyle;rounded=0;orthogonalLoop=1;jettySize=auto;html=1;entryX=0;entryY=0.5;entryDx=0;entryDy=0;entryPerimeter=0;" parent="1" source="SQljijMHcgAObp0ZF5zH-34" target="SQljijMHcgAObp0ZF5zH-37" edge="1">
          <mxGeometry relative="1" as="geometry" />
        </mxCell>
        <mxCell id="SQljijMHcgAObp0ZF5zH-39" value="YES" style="edgeLabel;html=1;align=center;verticalAlign=middle;resizable=0;points=[];" parent="SQljijMHcgAObp0ZF5zH-38" vertex="1" connectable="0">
          <mxGeometry x="-0.1429" y="-3" relative="1" as="geometry">
            <mxPoint as="offset" />
          </mxGeometry>
        </mxCell>
        <mxCell id="SQljijMHcgAObp0ZF5zH-48" style="edgeStyle=orthogonalEdgeStyle;rounded=0;orthogonalLoop=1;jettySize=auto;html=1;entryX=0.5;entryY=0;entryDx=0;entryDy=0;" parent="1" source="SQljijMHcgAObp0ZF5zH-43" target="SQljijMHcgAObp0ZF5zH-47" edge="1">
          <mxGeometry relative="1" as="geometry" />
        </mxCell>
        <mxCell id="SQljijMHcgAObp0ZF5zH-43" value="Input :&lt;br&gt;Jumlah barang yang &lt;br&gt;ingin diubah" style="shape=parallelogram;html=1;strokeWidth=2;perimeter=parallelogramPerimeter;whiteSpace=wrap;rounded=1;arcSize=12;size=0.23;" parent="1" vertex="1">
          <mxGeometry x="2320" y="-940" width="220" height="50" as="geometry" />
        </mxCell>
        <mxCell id="SQljijMHcgAObp0ZF5zH-49" style="edgeStyle=orthogonalEdgeStyle;rounded=0;orthogonalLoop=1;jettySize=auto;html=1;entryX=1;entryY=0.5;entryDx=0;entryDy=0;" parent="1" edge="1" target="J4htUw2u4dFuZCWiD5Bl-2">
          <mxGeometry relative="1" as="geometry">
            <Array as="points">
              <mxPoint x="2433" y="-710" />
              <mxPoint x="2310" y="-710" />
              <mxPoint x="2310" y="-1070" />
            </Array>
            <mxPoint x="2433.37" y="-740" as="sourcePoint" />
            <mxPoint x="1119.1325000000002" y="-1070" as="targetPoint" />
          </mxGeometry>
        </mxCell>
        <mxCell id="SQljijMHcgAObp0ZF5zH-47" value="Memperbarui&lt;br&gt;data&lt;br&gt;keranjang" style="rounded=1;whiteSpace=wrap;html=1;absoluteArcSize=1;arcSize=14;strokeWidth=2;" parent="1" vertex="1">
          <mxGeometry x="2387.5" y="-825" width="85" height="85" as="geometry" />
        </mxCell>
        <mxCell id="SQljijMHcgAObp0ZF5zH-55" style="edgeStyle=orthogonalEdgeStyle;rounded=0;orthogonalLoop=1;jettySize=auto;html=1;entryX=0;entryY=0.5;entryDx=0;entryDy=0;" parent="1" source="SQljijMHcgAObp0ZF5zH-50" target="SQljijMHcgAObp0ZF5zH-52" edge="1">
          <mxGeometry relative="1" as="geometry" />
        </mxCell>
        <mxCell id="SQljijMHcgAObp0ZF5zH-50" value="Output :&lt;br&gt;Menampilkan data &lt;br&gt;keranjang dan harganya&lt;br&gt;beserta harga total" style="shape=parallelogram;html=1;strokeWidth=2;perimeter=parallelogramPerimeter;whiteSpace=wrap;rounded=1;arcSize=12;size=0.23;" parent="1" vertex="1">
          <mxGeometry x="1128.75" y="-445.71000000000004" width="200" height="60" as="geometry" />
        </mxCell>
        <mxCell id="SQljijMHcgAObp0ZF5zH-54" style="edgeStyle=orthogonalEdgeStyle;rounded=0;orthogonalLoop=1;jettySize=auto;html=1;entryX=0;entryY=0.5;entryDx=0;entryDy=0;" parent="1" source="SQljijMHcgAObp0ZF5zH-52" target="SQljijMHcgAObp0ZF5zH-53" edge="1">
          <mxGeometry relative="1" as="geometry" />
        </mxCell>
        <mxCell id="SQljijMHcgAObp0ZF5zH-52" value="Input :&lt;br&gt;Memasukkan nominal&lt;br&gt;pembayaran" style="shape=parallelogram;html=1;strokeWidth=2;perimeter=parallelogramPerimeter;whiteSpace=wrap;rounded=1;arcSize=12;size=0.23;" parent="1" vertex="1">
          <mxGeometry x="1366.25" y="-440.71000000000004" width="220" height="50" as="geometry" />
        </mxCell>
        <mxCell id="55iRGE-QmXmswaMHTD7d-70" style="edgeStyle=orthogonalEdgeStyle;rounded=0;orthogonalLoop=1;jettySize=auto;html=1;exitX=1;exitY=0.5;exitDx=0;exitDy=0;entryX=1;entryY=0.5;entryDx=0;entryDy=0;" parent="1" source="55iRGE-QmXmswaMHTD7d-72" target="J4htUw2u4dFuZCWiD5Bl-2" edge="1">
          <mxGeometry relative="1" as="geometry">
            <Array as="points">
              <mxPoint x="2310" y="-416" />
              <mxPoint x="2310" y="-1070" />
            </Array>
          </mxGeometry>
        </mxCell>
        <mxCell id="55iRGE-QmXmswaMHTD7d-75" style="edgeStyle=orthogonalEdgeStyle;rounded=0;orthogonalLoop=1;jettySize=auto;html=1;exitX=1;exitY=0.5;exitDx=0;exitDy=0;entryX=0;entryY=0.5;entryDx=0;entryDy=0;" parent="1" source="SQljijMHcgAObp0ZF5zH-53" target="55iRGE-QmXmswaMHTD7d-72" edge="1">
          <mxGeometry relative="1" as="geometry" />
        </mxCell>
        <mxCell id="SQljijMHcgAObp0ZF5zH-53" value="Menghitung kembalian&lt;br&gt;dan&lt;br&gt;menyimpan data &lt;br&gt;riwayat pembelian" style="rounded=1;whiteSpace=wrap;html=1;absoluteArcSize=1;arcSize=14;strokeWidth=2;" parent="1" vertex="1">
          <mxGeometry x="1630" y="-460" width="130" height="90" as="geometry" />
        </mxCell>
        <mxCell id="xk0f2dNad-sJVl7q87qp-1" style="edgeStyle=orthogonalEdgeStyle;rounded=0;orthogonalLoop=1;jettySize=auto;html=1;exitX=0.5;exitY=1;exitDx=0;exitDy=0;exitPerimeter=0;" parent="1" source="xk0f2dNad-sJVl7q87qp-54" target="xk0f2dNad-sJVl7q87qp-27" edge="1">
          <mxGeometry relative="1" as="geometry">
            <mxPoint x="1279.9999999999998" y="-2310" as="sourcePoint" />
          </mxGeometry>
        </mxCell>
        <mxCell id="xk0f2dNad-sJVl7q87qp-3" style="edgeStyle=orthogonalEdgeStyle;rounded=0;orthogonalLoop=1;jettySize=auto;html=1;" parent="1" source="xk0f2dNad-sJVl7q87qp-5" target="xk0f2dNad-sJVl7q87qp-31" edge="1">
          <mxGeometry relative="1" as="geometry" />
        </mxCell>
        <mxCell id="xk0f2dNad-sJVl7q87qp-4" value="YES" style="edgeLabel;html=1;align=center;verticalAlign=middle;resizable=0;points=[];" parent="xk0f2dNad-sJVl7q87qp-3" vertex="1" connectable="0">
          <mxGeometry x="-0.3524" y="1" relative="1" as="geometry">
            <mxPoint as="offset" />
          </mxGeometry>
        </mxCell>
        <mxCell id="xk0f2dNad-sJVl7q87qp-5" value="Pilihan == 1" style="strokeWidth=2;html=1;shape=mxgraph.flowchart.decision;whiteSpace=wrap;" parent="1" vertex="1">
          <mxGeometry x="1230" y="-2080" width="100" height="60" as="geometry" />
        </mxCell>
        <mxCell id="xk0f2dNad-sJVl7q87qp-6" style="edgeStyle=orthogonalEdgeStyle;rounded=0;orthogonalLoop=1;jettySize=auto;html=1;" parent="1" source="xk0f2dNad-sJVl7q87qp-7" target="xk0f2dNad-sJVl7q87qp-37" edge="1">
          <mxGeometry relative="1" as="geometry" />
        </mxCell>
        <mxCell id="55iRGE-QmXmswaMHTD7d-25" value="YES" style="edgeLabel;html=1;align=center;verticalAlign=middle;resizable=0;points=[];" parent="xk0f2dNad-sJVl7q87qp-6" vertex="1" connectable="0">
          <mxGeometry x="-0.5169" y="1" relative="1" as="geometry">
            <mxPoint as="offset" />
          </mxGeometry>
        </mxCell>
        <mxCell id="xk0f2dNad-sJVl7q87qp-7" value="Pilihan == 2" style="strokeWidth=2;html=1;shape=mxgraph.flowchart.decision;whiteSpace=wrap;" parent="1" vertex="1">
          <mxGeometry x="1230" y="-1970" width="100" height="60" as="geometry" />
        </mxCell>
        <mxCell id="xk0f2dNad-sJVl7q87qp-8" style="edgeStyle=orthogonalEdgeStyle;rounded=0;orthogonalLoop=1;jettySize=auto;html=1;" parent="1" source="xk0f2dNad-sJVl7q87qp-9" target="xk0f2dNad-sJVl7q87qp-39" edge="1">
          <mxGeometry relative="1" as="geometry" />
        </mxCell>
        <mxCell id="55iRGE-QmXmswaMHTD7d-22" value="YES" style="edgeLabel;html=1;align=center;verticalAlign=middle;resizable=0;points=[];" parent="xk0f2dNad-sJVl7q87qp-8" vertex="1" connectable="0">
          <mxGeometry x="-0.4047" y="2" relative="1" as="geometry">
            <mxPoint as="offset" />
          </mxGeometry>
        </mxCell>
        <mxCell id="xk0f2dNad-sJVl7q87qp-9" value="Pilihan == 3" style="strokeWidth=2;html=1;shape=mxgraph.flowchart.decision;whiteSpace=wrap;" parent="1" vertex="1">
          <mxGeometry x="1230" y="-1840" width="100" height="60" as="geometry" />
        </mxCell>
        <mxCell id="xk0f2dNad-sJVl7q87qp-10" style="edgeStyle=orthogonalEdgeStyle;rounded=0;orthogonalLoop=1;jettySize=auto;html=1;entryX=0.5;entryY=0;entryDx=0;entryDy=0;entryPerimeter=0;" parent="1" source="xk0f2dNad-sJVl7q87qp-5" target="xk0f2dNad-sJVl7q87qp-7" edge="1">
          <mxGeometry relative="1" as="geometry" />
        </mxCell>
        <mxCell id="xk0f2dNad-sJVl7q87qp-11" value="NO" style="edgeLabel;html=1;align=center;verticalAlign=middle;resizable=0;points=[];" parent="xk0f2dNad-sJVl7q87qp-10" vertex="1" connectable="0">
          <mxGeometry x="-0.38" y="2" relative="1" as="geometry">
            <mxPoint as="offset" />
          </mxGeometry>
        </mxCell>
        <mxCell id="xk0f2dNad-sJVl7q87qp-12" style="edgeStyle=orthogonalEdgeStyle;rounded=0;orthogonalLoop=1;jettySize=auto;html=1;entryX=0.5;entryY=0;entryDx=0;entryDy=0;entryPerimeter=0;" parent="1" source="xk0f2dNad-sJVl7q87qp-7" target="xk0f2dNad-sJVl7q87qp-9" edge="1">
          <mxGeometry relative="1" as="geometry" />
        </mxCell>
        <mxCell id="xk0f2dNad-sJVl7q87qp-13" value="NO" style="edgeLabel;html=1;align=center;verticalAlign=middle;resizable=0;points=[];" parent="xk0f2dNad-sJVl7q87qp-12" vertex="1" connectable="0">
          <mxGeometry x="-0.03" y="-1" relative="1" as="geometry">
            <mxPoint as="offset" />
          </mxGeometry>
        </mxCell>
        <mxCell id="xk0f2dNad-sJVl7q87qp-14" style="edgeStyle=orthogonalEdgeStyle;rounded=0;orthogonalLoop=1;jettySize=auto;html=1;" parent="1" source="xk0f2dNad-sJVl7q87qp-15" target="xk0f2dNad-sJVl7q87qp-45" edge="1">
          <mxGeometry relative="1" as="geometry" />
        </mxCell>
        <mxCell id="55iRGE-QmXmswaMHTD7d-23" value="YES" style="edgeLabel;html=1;align=center;verticalAlign=middle;resizable=0;points=[];" parent="xk0f2dNad-sJVl7q87qp-14" vertex="1" connectable="0">
          <mxGeometry x="0.3398" y="4" relative="1" as="geometry">
            <mxPoint as="offset" />
          </mxGeometry>
        </mxCell>
        <mxCell id="xk0f2dNad-sJVl7q87qp-15" value="Pilihan == 4" style="strokeWidth=2;html=1;shape=mxgraph.flowchart.decision;whiteSpace=wrap;" parent="1" vertex="1">
          <mxGeometry x="1230" y="-1700" width="100" height="60" as="geometry" />
        </mxCell>
        <mxCell id="xk0f2dNad-sJVl7q87qp-16" style="edgeStyle=orthogonalEdgeStyle;rounded=0;orthogonalLoop=1;jettySize=auto;html=1;entryX=0.5;entryY=0;entryDx=0;entryDy=0;entryPerimeter=0;" parent="1" source="xk0f2dNad-sJVl7q87qp-9" target="xk0f2dNad-sJVl7q87qp-15" edge="1">
          <mxGeometry relative="1" as="geometry" />
        </mxCell>
        <mxCell id="xk0f2dNad-sJVl7q87qp-17" value="NO" style="edgeLabel;html=1;align=center;verticalAlign=middle;resizable=0;points=[];" parent="xk0f2dNad-sJVl7q87qp-16" vertex="1" connectable="0">
          <mxGeometry x="-0.28" y="2" relative="1" as="geometry">
            <mxPoint as="offset" />
          </mxGeometry>
        </mxCell>
        <mxCell id="xk0f2dNad-sJVl7q87qp-18" style="edgeStyle=orthogonalEdgeStyle;rounded=0;orthogonalLoop=1;jettySize=auto;html=1;" parent="1" source="55iRGE-QmXmswaMHTD7d-83" target="xk0f2dNad-sJVl7q87qp-53" edge="1">
          <mxGeometry relative="1" as="geometry" />
        </mxCell>
        <mxCell id="xk0f2dNad-sJVl7q87qp-19" value="Pilihan == 5" style="strokeWidth=2;html=1;shape=mxgraph.flowchart.decision;whiteSpace=wrap;" parent="1" vertex="1">
          <mxGeometry x="1230" y="-1545.71" width="100" height="60" as="geometry" />
        </mxCell>
        <mxCell id="xk0f2dNad-sJVl7q87qp-20" value="Pilihan == 6" style="strokeWidth=2;html=1;shape=mxgraph.flowchart.decision;whiteSpace=wrap;" parent="1" vertex="1">
          <mxGeometry x="1230" y="-1430" width="100" height="60" as="geometry" />
        </mxCell>
        <mxCell id="xk0f2dNad-sJVl7q87qp-21" style="edgeStyle=orthogonalEdgeStyle;rounded=0;orthogonalLoop=1;jettySize=auto;html=1;entryX=0.5;entryY=0;entryDx=0;entryDy=0;entryPerimeter=0;" parent="1" source="xk0f2dNad-sJVl7q87qp-15" target="xk0f2dNad-sJVl7q87qp-19" edge="1">
          <mxGeometry relative="1" as="geometry" />
        </mxCell>
        <mxCell id="xk0f2dNad-sJVl7q87qp-22" value="NO" style="edgeLabel;html=1;align=center;verticalAlign=middle;resizable=0;points=[];" parent="xk0f2dNad-sJVl7q87qp-21" vertex="1" connectable="0">
          <mxGeometry x="-0.18" y="-3" relative="1" as="geometry">
            <mxPoint as="offset" />
          </mxGeometry>
        </mxCell>
        <mxCell id="xk0f2dNad-sJVl7q87qp-23" style="edgeStyle=orthogonalEdgeStyle;rounded=0;orthogonalLoop=1;jettySize=auto;html=1;entryX=0.5;entryY=0;entryDx=0;entryDy=0;entryPerimeter=0;" parent="1" source="xk0f2dNad-sJVl7q87qp-19" target="xk0f2dNad-sJVl7q87qp-20" edge="1">
          <mxGeometry relative="1" as="geometry" />
        </mxCell>
        <mxCell id="xk0f2dNad-sJVl7q87qp-24" value="NO" style="edgeLabel;html=1;align=center;verticalAlign=middle;resizable=0;points=[];" parent="xk0f2dNad-sJVl7q87qp-23" vertex="1" connectable="0">
          <mxGeometry x="-0.23" y="-1" relative="1" as="geometry">
            <mxPoint as="offset" />
          </mxGeometry>
        </mxCell>
        <mxCell id="xk0f2dNad-sJVl7q87qp-25" style="edgeStyle=orthogonalEdgeStyle;rounded=0;orthogonalLoop=1;jettySize=auto;html=1;entryX=0.5;entryY=0;entryDx=0;entryDy=0;exitX=0.5;exitY=1;exitDx=0;exitDy=0;exitPerimeter=0;" parent="1" source="xk0f2dNad-sJVl7q87qp-20" target="xk0f2dNad-sJVl7q87qp-29" edge="1">
          <mxGeometry relative="1" as="geometry">
            <mxPoint x="1280" y="-1260" as="sourcePoint" />
          </mxGeometry>
        </mxCell>
        <mxCell id="xk0f2dNad-sJVl7q87qp-26" value="YES" style="edgeLabel;html=1;align=center;verticalAlign=middle;resizable=0;points=[];" parent="xk0f2dNad-sJVl7q87qp-25" vertex="1" connectable="0">
          <mxGeometry x="-0.12" y="-4" relative="1" as="geometry">
            <mxPoint x="4" as="offset" />
          </mxGeometry>
        </mxCell>
        <mxCell id="xk0f2dNad-sJVl7q87qp-27" value="Output :&lt;br&gt;Menu Admin&lt;br&gt;&lt;div style=&quot;border-color: var(--border-color); text-align: left;&quot;&gt;1. Menambah data barang&lt;/div&gt;&lt;div style=&quot;border-color: var(--border-color); text-align: left;&quot;&gt;2. Menampilkan semua data barang&lt;/div&gt;&lt;div style=&quot;border-color: var(--border-color); text-align: left;&quot;&gt;3. Memperbarui data barang&lt;/div&gt;&lt;div style=&quot;border-color: var(--border-color); text-align: left;&quot;&gt;4. Menghapus data barang&lt;/div&gt;&lt;div style=&quot;border-color: var(--border-color); text-align: left;&quot;&gt;5. Riwayat pembelian user&lt;/div&gt;&lt;div style=&quot;border-color: var(--border-color); text-align: left;&quot;&gt;6. Logout akun&lt;/div&gt;" style="shape=parallelogram;html=1;strokeWidth=2;perimeter=parallelogramPerimeter;whiteSpace=wrap;rounded=1;arcSize=12;size=0.23;" parent="1" vertex="1">
          <mxGeometry x="1130" y="-2270" width="300" height="140" as="geometry" />
        </mxCell>
        <mxCell id="xk0f2dNad-sJVl7q87qp-28" style="edgeStyle=orthogonalEdgeStyle;rounded=0;orthogonalLoop=1;jettySize=auto;html=1;entryX=0.5;entryY=0;entryDx=0;entryDy=0;entryPerimeter=0;" parent="1" source="xk0f2dNad-sJVl7q87qp-27" target="xk0f2dNad-sJVl7q87qp-5" edge="1">
          <mxGeometry relative="1" as="geometry" />
        </mxCell>
        <mxCell id="xk0f2dNad-sJVl7q87qp-29" value="MENU&lt;br&gt;AKUN" style="verticalLabelPosition=middle;verticalAlign=middle;html=1;shape=offPageConnector;rounded=0;size=0.5;align=center;labelPosition=center;" parent="1" vertex="1">
          <mxGeometry x="1250" y="-1310" width="60" height="60" as="geometry" />
        </mxCell>
        <mxCell id="xk0f2dNad-sJVl7q87qp-30" style="edgeStyle=orthogonalEdgeStyle;rounded=0;orthogonalLoop=1;jettySize=auto;html=1;entryX=0;entryY=0.5;entryDx=0;entryDy=0;" parent="1" source="xk0f2dNad-sJVl7q87qp-31" target="xk0f2dNad-sJVl7q87qp-33" edge="1">
          <mxGeometry relative="1" as="geometry" />
        </mxCell>
        <mxCell id="xk0f2dNad-sJVl7q87qp-31" value="Output :&lt;br&gt;Menampilkan barang dan&lt;br&gt;harga barang" style="shape=parallelogram;html=1;strokeWidth=2;perimeter=parallelogramPerimeter;whiteSpace=wrap;rounded=1;arcSize=12;size=0.23;" parent="1" vertex="1">
          <mxGeometry x="1370" y="-2080" width="200" height="60" as="geometry" />
        </mxCell>
        <mxCell id="xk0f2dNad-sJVl7q87qp-32" value="" style="edgeStyle=orthogonalEdgeStyle;rounded=0;orthogonalLoop=1;jettySize=auto;html=1;" parent="1" source="55iRGE-QmXmswaMHTD7d-19" target="xk0f2dNad-sJVl7q87qp-35" edge="1">
          <mxGeometry relative="1" as="geometry" />
        </mxCell>
        <mxCell id="55iRGE-QmXmswaMHTD7d-35" value="YES" style="edgeLabel;html=1;align=center;verticalAlign=middle;resizable=0;points=[];" parent="xk0f2dNad-sJVl7q87qp-32" vertex="1" connectable="0">
          <mxGeometry x="-0.2223" y="2" relative="1" as="geometry">
            <mxPoint as="offset" />
          </mxGeometry>
        </mxCell>
        <mxCell id="xk0f2dNad-sJVl7q87qp-33" value="Input :&lt;br&gt;Data barang" style="shape=parallelogram;html=1;strokeWidth=2;perimeter=parallelogramPerimeter;whiteSpace=wrap;rounded=1;arcSize=12;size=0.23;" parent="1" vertex="1">
          <mxGeometry x="1580" y="-2075" width="150" height="50" as="geometry" />
        </mxCell>
        <mxCell id="xk0f2dNad-sJVl7q87qp-34" style="edgeStyle=orthogonalEdgeStyle;rounded=0;orthogonalLoop=1;jettySize=auto;html=1;entryX=1;entryY=0.5;entryDx=0;entryDy=0;" parent="1" source="xk0f2dNad-sJVl7q87qp-35" target="xk0f2dNad-sJVl7q87qp-27" edge="1">
          <mxGeometry relative="1" as="geometry">
            <Array as="points">
              <mxPoint x="2520" y="-2050" />
              <mxPoint x="2520" y="-2200" />
            </Array>
          </mxGeometry>
        </mxCell>
        <mxCell id="xk0f2dNad-sJVl7q87qp-35" value="Simpan data barang" style="rounded=1;whiteSpace=wrap;html=1;strokeWidth=2;arcSize=12;" parent="1" vertex="1">
          <mxGeometry x="2377.5" y="-2080" width="95" height="60" as="geometry" />
        </mxCell>
        <mxCell id="xk0f2dNad-sJVl7q87qp-36" style="edgeStyle=orthogonalEdgeStyle;rounded=0;orthogonalLoop=1;jettySize=auto;html=1;entryX=1;entryY=0.5;entryDx=0;entryDy=0;" parent="1" source="xk0f2dNad-sJVl7q87qp-37" target="xk0f2dNad-sJVl7q87qp-27" edge="1">
          <mxGeometry relative="1" as="geometry">
            <Array as="points">
              <mxPoint x="2520" y="-1940" />
              <mxPoint x="2520" y="-2200" />
            </Array>
          </mxGeometry>
        </mxCell>
        <mxCell id="xk0f2dNad-sJVl7q87qp-37" value="Output :&lt;br&gt;Menampilkan barang dan&lt;br&gt;harga barang" style="shape=parallelogram;html=1;strokeWidth=2;perimeter=parallelogramPerimeter;whiteSpace=wrap;rounded=1;arcSize=12;size=0.23;" parent="1" vertex="1">
          <mxGeometry x="1370" y="-1970" width="200" height="60" as="geometry" />
        </mxCell>
        <mxCell id="xk0f2dNad-sJVl7q87qp-38" style="edgeStyle=orthogonalEdgeStyle;rounded=0;orthogonalLoop=1;jettySize=auto;html=1;exitX=1;exitY=0.5;exitDx=0;exitDy=0;entryX=0;entryY=0.5;entryDx=0;entryDy=0;" parent="1" source="xk0f2dNad-sJVl7q87qp-39" target="xk0f2dNad-sJVl7q87qp-41" edge="1">
          <mxGeometry relative="1" as="geometry" />
        </mxCell>
        <mxCell id="xk0f2dNad-sJVl7q87qp-39" value="Output :&lt;br&gt;Menampilkan barang dan&lt;br&gt;harga barang" style="shape=parallelogram;html=1;strokeWidth=2;perimeter=parallelogramPerimeter;whiteSpace=wrap;rounded=1;arcSize=12;size=0.23;" parent="1" vertex="1">
          <mxGeometry x="1360" y="-1840" width="200" height="60" as="geometry" />
        </mxCell>
        <mxCell id="xk0f2dNad-sJVl7q87qp-40" style="edgeStyle=orthogonalEdgeStyle;rounded=0;orthogonalLoop=1;jettySize=auto;html=1;exitX=1;exitY=0.5;exitDx=0;exitDy=0;entryX=0;entryY=0.5;entryDx=0;entryDy=0;" parent="1" source="55iRGE-QmXmswaMHTD7d-15" target="xk0f2dNad-sJVl7q87qp-43" edge="1">
          <mxGeometry relative="1" as="geometry" />
        </mxCell>
        <mxCell id="55iRGE-QmXmswaMHTD7d-29" value="YES" style="edgeLabel;html=1;align=center;verticalAlign=middle;resizable=0;points=[];" parent="xk0f2dNad-sJVl7q87qp-40" vertex="1" connectable="0">
          <mxGeometry x="-0.3251" y="-4" relative="1" as="geometry">
            <mxPoint x="6" y="-4" as="offset" />
          </mxGeometry>
        </mxCell>
        <mxCell id="xk0f2dNad-sJVl7q87qp-41" value="Input :&lt;br&gt;Cari barang&amp;nbsp;&lt;br&gt;dengan kode" style="shape=parallelogram;html=1;strokeWidth=2;perimeter=parallelogramPerimeter;whiteSpace=wrap;rounded=1;arcSize=12;size=0.23;" parent="1" vertex="1">
          <mxGeometry x="1561.25" y="-1835" width="150" height="50" as="geometry" />
        </mxCell>
        <mxCell id="xk0f2dNad-sJVl7q87qp-42" style="edgeStyle=orthogonalEdgeStyle;rounded=0;orthogonalLoop=1;jettySize=auto;html=1;exitX=1;exitY=0.5;exitDx=0;exitDy=0;entryX=0;entryY=0.5;entryDx=0;entryDy=0;" parent="1" source="55iRGE-QmXmswaMHTD7d-13" target="xk0f2dNad-sJVl7q87qp-49" edge="1">
          <mxGeometry relative="1" as="geometry" />
        </mxCell>
        <mxCell id="55iRGE-QmXmswaMHTD7d-31" value="YES" style="edgeLabel;html=1;align=center;verticalAlign=middle;resizable=0;points=[];" parent="xk0f2dNad-sJVl7q87qp-42" vertex="1" connectable="0">
          <mxGeometry x="0.6272" y="-2" relative="1" as="geometry">
            <mxPoint x="-14" y="-2" as="offset" />
          </mxGeometry>
        </mxCell>
        <mxCell id="xk0f2dNad-sJVl7q87qp-43" value="Input :&lt;br&gt;Ubah data barang" style="shape=parallelogram;html=1;strokeWidth=2;perimeter=parallelogramPerimeter;whiteSpace=wrap;rounded=1;arcSize=12;size=0.23;" parent="1" vertex="1">
          <mxGeometry x="1970" y="-1835" width="180" height="50" as="geometry" />
        </mxCell>
        <mxCell id="xk0f2dNad-sJVl7q87qp-44" style="edgeStyle=orthogonalEdgeStyle;rounded=0;orthogonalLoop=1;jettySize=auto;html=1;entryX=0;entryY=0.5;entryDx=0;entryDy=0;" parent="1" source="xk0f2dNad-sJVl7q87qp-45" target="xk0f2dNad-sJVl7q87qp-47" edge="1">
          <mxGeometry relative="1" as="geometry" />
        </mxCell>
        <mxCell id="xk0f2dNad-sJVl7q87qp-45" value="Output :&lt;br&gt;Menampilkan barang dan&lt;br&gt;harga barang" style="shape=parallelogram;html=1;strokeWidth=2;perimeter=parallelogramPerimeter;whiteSpace=wrap;rounded=1;arcSize=12;size=0.23;" parent="1" vertex="1">
          <mxGeometry x="1360" y="-1700" width="200" height="60" as="geometry" />
        </mxCell>
        <mxCell id="xk0f2dNad-sJVl7q87qp-47" value="Input :&lt;br&gt;Cari barang&lt;br&gt;dengan kode" style="shape=parallelogram;html=1;strokeWidth=2;perimeter=parallelogramPerimeter;whiteSpace=wrap;rounded=1;arcSize=12;size=0.23;" parent="1" vertex="1">
          <mxGeometry x="1580" y="-1695" width="150" height="50" as="geometry" />
        </mxCell>
        <mxCell id="xk0f2dNad-sJVl7q87qp-48" style="edgeStyle=orthogonalEdgeStyle;rounded=0;orthogonalLoop=1;jettySize=auto;html=1;entryX=1;entryY=0.5;entryDx=0;entryDy=0;" parent="1" source="xk0f2dNad-sJVl7q87qp-49" target="xk0f2dNad-sJVl7q87qp-27" edge="1">
          <mxGeometry relative="1" as="geometry">
            <Array as="points">
              <mxPoint x="2520" y="-1810" />
              <mxPoint x="2520" y="-2200" />
            </Array>
          </mxGeometry>
        </mxCell>
        <mxCell id="xk0f2dNad-sJVl7q87qp-49" value="Simpan data barang" style="rounded=1;whiteSpace=wrap;html=1;strokeWidth=2;arcSize=12;" parent="1" vertex="1">
          <mxGeometry x="2420" y="-1840" width="95" height="60" as="geometry" />
        </mxCell>
        <mxCell id="xk0f2dNad-sJVl7q87qp-50" style="edgeStyle=orthogonalEdgeStyle;rounded=0;orthogonalLoop=1;jettySize=auto;html=1;entryX=1;entryY=0.5;entryDx=0;entryDy=0;" parent="1" source="xk0f2dNad-sJVl7q87qp-51" target="xk0f2dNad-sJVl7q87qp-27" edge="1">
          <mxGeometry relative="1" as="geometry">
            <Array as="points">
              <mxPoint x="2520" y="-1670" />
              <mxPoint x="2520" y="-2200" />
            </Array>
          </mxGeometry>
        </mxCell>
        <mxCell id="xk0f2dNad-sJVl7q87qp-51" value="Hapus data barang" style="rounded=1;whiteSpace=wrap;html=1;strokeWidth=2;arcSize=12;" parent="1" vertex="1">
          <mxGeometry x="2230" y="-1700" width="95" height="60" as="geometry" />
        </mxCell>
        <mxCell id="xk0f2dNad-sJVl7q87qp-52" style="edgeStyle=orthogonalEdgeStyle;rounded=0;orthogonalLoop=1;jettySize=auto;html=1;entryX=1;entryY=0.5;entryDx=0;entryDy=0;" parent="1" source="xk0f2dNad-sJVl7q87qp-53" target="xk0f2dNad-sJVl7q87qp-27" edge="1">
          <mxGeometry relative="1" as="geometry">
            <Array as="points">
              <mxPoint x="2520" y="-1516" />
              <mxPoint x="2520" y="-2200" />
            </Array>
          </mxGeometry>
        </mxCell>
        <mxCell id="xk0f2dNad-sJVl7q87qp-53" value="Output :&lt;br&gt;Menampilkan riwayat&lt;br&gt;pembelian member" style="shape=parallelogram;html=1;strokeWidth=2;perimeter=parallelogramPerimeter;whiteSpace=wrap;rounded=1;arcSize=12;size=0.23;" parent="1" vertex="1">
          <mxGeometry x="1830" y="-1545.71" width="200" height="60" as="geometry" />
        </mxCell>
        <mxCell id="xk0f2dNad-sJVl7q87qp-54" value="ADMIN" style="verticalLabelPosition=middle;verticalAlign=middle;html=1;shape=mxgraph.flowchart.on-page_reference;labelPosition=center;align=center;" parent="1" vertex="1">
          <mxGeometry x="1250" y="-2360" width="60" height="60" as="geometry" />
        </mxCell>
        <mxCell id="xk0f2dNad-sJVl7q87qp-55" value="ADMIN" style="verticalLabelPosition=middle;verticalAlign=middle;html=1;shape=mxgraph.flowchart.on-page_reference;labelPosition=center;align=center;" parent="1" vertex="1">
          <mxGeometry x="1796.25" y="-2545" width="60" height="60" as="geometry" />
        </mxCell>
        <mxCell id="xk0f2dNad-sJVl7q87qp-56" value="MEMBER" style="verticalLabelPosition=middle;verticalAlign=middle;html=1;shape=mxgraph.flowchart.on-page_reference;labelPosition=center;align=center;" parent="1" vertex="1">
          <mxGeometry x="1636.25" y="-2410" width="60" height="60" as="geometry" />
        </mxCell>
        <mxCell id="xk0f2dNad-sJVl7q87qp-61" style="edgeStyle=orthogonalEdgeStyle;rounded=0;orthogonalLoop=1;jettySize=auto;html=1;entryX=0.5;entryY=0;entryDx=0;entryDy=0;" parent="1" source="xk0f2dNad-sJVl7q87qp-59" target="J4htUw2u4dFuZCWiD5Bl-2" edge="1">
          <mxGeometry relative="1" as="geometry" />
        </mxCell>
        <mxCell id="xk0f2dNad-sJVl7q87qp-59" value="MEMBER" style="verticalLabelPosition=middle;verticalAlign=middle;html=1;shape=mxgraph.flowchart.on-page_reference;labelPosition=center;align=center;" parent="1" vertex="1">
          <mxGeometry x="996.25" y="-1220" width="60" height="60" as="geometry" />
        </mxCell>
        <mxCell id="xk0f2dNad-sJVl7q87qp-68" style="edgeStyle=orthogonalEdgeStyle;rounded=0;orthogonalLoop=1;jettySize=auto;html=1;entryX=0.5;entryY=0;entryDx=0;entryDy=0;entryPerimeter=0;" parent="1" source="Ak1q0RXvYgdWRL72e2se-1" target="xk0f2dNad-sJVl7q87qp-56" edge="1">
          <mxGeometry relative="1" as="geometry" />
        </mxCell>
        <mxCell id="xk0f2dNad-sJVl7q87qp-69" value="NO" style="edgeLabel;html=1;align=center;verticalAlign=middle;resizable=0;points=[];" parent="xk0f2dNad-sJVl7q87qp-68" vertex="1" connectable="0">
          <mxGeometry y="-1" relative="1" as="geometry">
            <mxPoint as="offset" />
          </mxGeometry>
        </mxCell>
        <mxCell id="55iRGE-QmXmswaMHTD7d-5" style="edgeStyle=orthogonalEdgeStyle;rounded=0;orthogonalLoop=1;jettySize=auto;html=1;exitX=1;exitY=0.5;exitDx=0;exitDy=0;entryX=0;entryY=0.5;entryDx=0;entryDy=0;" parent="1" source="55iRGE-QmXmswaMHTD7d-6" target="xk0f2dNad-sJVl7q87qp-51" edge="1">
          <mxGeometry relative="1" as="geometry">
            <mxPoint x="1856.25" y="-1670" as="sourcePoint" />
          </mxGeometry>
        </mxCell>
        <mxCell id="55iRGE-QmXmswaMHTD7d-7" style="edgeStyle=orthogonalEdgeStyle;rounded=0;orthogonalLoop=1;jettySize=auto;html=1;exitX=1;exitY=0.5;exitDx=0;exitDy=0;entryX=0;entryY=0.5;entryDx=0;entryDy=0;entryPerimeter=0;" parent="1" source="55iRGE-QmXmswaMHTD7d-99" target="55iRGE-QmXmswaMHTD7d-6" edge="1">
          <mxGeometry relative="1" as="geometry" />
        </mxCell>
        <mxCell id="55iRGE-QmXmswaMHTD7d-8" style="edgeStyle=orthogonalEdgeStyle;rounded=0;orthogonalLoop=1;jettySize=auto;html=1;exitX=0.5;exitY=1;exitDx=0;exitDy=0;exitPerimeter=0;entryX=0.398;entryY=0.98;entryDx=0;entryDy=0;entryPerimeter=0;" parent="1" source="55iRGE-QmXmswaMHTD7d-6" target="xk0f2dNad-sJVl7q87qp-47" edge="1">
          <mxGeometry relative="1" as="geometry" />
        </mxCell>
        <mxCell id="55iRGE-QmXmswaMHTD7d-12" value="NO" style="edgeLabel;html=1;align=center;verticalAlign=middle;resizable=0;points=[];" parent="55iRGE-QmXmswaMHTD7d-8" vertex="1" connectable="0">
          <mxGeometry x="-0.3077" y="2" relative="1" as="geometry">
            <mxPoint as="offset" />
          </mxGeometry>
        </mxCell>
        <mxCell id="55iRGE-QmXmswaMHTD7d-14" style="edgeStyle=orthogonalEdgeStyle;rounded=0;orthogonalLoop=1;jettySize=auto;html=1;exitX=1;exitY=0.5;exitDx=0;exitDy=0;entryX=0;entryY=0.5;entryDx=0;entryDy=0;entryPerimeter=0;" parent="1" source="xk0f2dNad-sJVl7q87qp-43" target="55iRGE-QmXmswaMHTD7d-13" edge="1">
          <mxGeometry relative="1" as="geometry" />
        </mxCell>
        <mxCell id="55iRGE-QmXmswaMHTD7d-16" value="" style="edgeStyle=orthogonalEdgeStyle;rounded=0;orthogonalLoop=1;jettySize=auto;html=1;exitX=1;exitY=0.5;exitDx=0;exitDy=0;entryX=0;entryY=0.5;entryDx=0;entryDy=0;" parent="1" source="55iRGE-QmXmswaMHTD7d-91" target="55iRGE-QmXmswaMHTD7d-15" edge="1">
          <mxGeometry relative="1" as="geometry">
            <mxPoint x="1699" y="-1810" as="sourcePoint" />
            <mxPoint x="1817" y="-1810" as="targetPoint" />
          </mxGeometry>
        </mxCell>
        <mxCell id="55iRGE-QmXmswaMHTD7d-17" style="edgeStyle=orthogonalEdgeStyle;rounded=0;orthogonalLoop=1;jettySize=auto;html=1;exitX=0.5;exitY=1;exitDx=0;exitDy=0;exitPerimeter=0;entryX=0.5;entryY=1;entryDx=0;entryDy=0;" parent="1" source="55iRGE-QmXmswaMHTD7d-15" target="xk0f2dNad-sJVl7q87qp-41" edge="1">
          <mxGeometry relative="1" as="geometry" />
        </mxCell>
        <mxCell id="55iRGE-QmXmswaMHTD7d-28" value="NO" style="edgeLabel;html=1;align=center;verticalAlign=middle;resizable=0;points=[];" parent="55iRGE-QmXmswaMHTD7d-17" vertex="1" connectable="0">
          <mxGeometry x="-0.4063" y="-4" relative="1" as="geometry">
            <mxPoint as="offset" />
          </mxGeometry>
        </mxCell>
        <mxCell id="55iRGE-QmXmswaMHTD7d-15" value="cocok" style="strokeWidth=2;html=1;shape=mxgraph.flowchart.decision;whiteSpace=wrap;" parent="1" vertex="1">
          <mxGeometry x="1850" y="-1860" width="100" height="100" as="geometry" />
        </mxCell>
        <mxCell id="55iRGE-QmXmswaMHTD7d-20" value="" style="edgeStyle=orthogonalEdgeStyle;rounded=0;orthogonalLoop=1;jettySize=auto;html=1;" parent="1" source="55iRGE-QmXmswaMHTD7d-85" target="55iRGE-QmXmswaMHTD7d-19" edge="1">
          <mxGeometry relative="1" as="geometry">
            <mxPoint x="1713" y="-2050" as="sourcePoint" />
            <mxPoint x="2000" y="-2050" as="targetPoint" />
          </mxGeometry>
        </mxCell>
        <mxCell id="55iRGE-QmXmswaMHTD7d-86" style="edgeStyle=orthogonalEdgeStyle;rounded=0;orthogonalLoop=1;jettySize=auto;html=1;exitX=0.5;exitY=1;exitDx=0;exitDy=0;exitPerimeter=0;entryX=0.5;entryY=1;entryDx=0;entryDy=0;" parent="1" source="55iRGE-QmXmswaMHTD7d-19" target="xk0f2dNad-sJVl7q87qp-33" edge="1">
          <mxGeometry relative="1" as="geometry" />
        </mxCell>
        <mxCell id="55iRGE-QmXmswaMHTD7d-87" value="NO" style="edgeLabel;html=1;align=center;verticalAlign=middle;resizable=0;points=[];" parent="55iRGE-QmXmswaMHTD7d-86" vertex="1" connectable="0">
          <mxGeometry x="-0.7507" relative="1" as="geometry">
            <mxPoint as="offset" />
          </mxGeometry>
        </mxCell>
        <mxCell id="55iRGE-QmXmswaMHTD7d-19" value="cocok" style="strokeWidth=2;html=1;shape=mxgraph.flowchart.decision;whiteSpace=wrap;" parent="1" vertex="1">
          <mxGeometry x="2100" y="-2100" width="110" height="100" as="geometry" />
        </mxCell>
        <mxCell id="55iRGE-QmXmswaMHTD7d-37" style="edgeStyle=orthogonalEdgeStyle;rounded=0;orthogonalLoop=1;jettySize=auto;html=1;exitX=0.5;exitY=1;exitDx=0;exitDy=0;exitPerimeter=0;entryX=0.5;entryY=1;entryDx=0;entryDy=0;" parent="1" source="55iRGE-QmXmswaMHTD7d-36" target="dzPvkqmJKDAEyehiaQdK-3" edge="1">
          <mxGeometry relative="1" as="geometry" />
        </mxCell>
        <mxCell id="55iRGE-QmXmswaMHTD7d-38" value="NO" style="edgeLabel;html=1;align=center;verticalAlign=middle;resizable=0;points=[];" parent="55iRGE-QmXmswaMHTD7d-37" vertex="1" connectable="0">
          <mxGeometry x="-0.3391" y="-2" relative="1" as="geometry">
            <mxPoint as="offset" />
          </mxGeometry>
        </mxCell>
        <mxCell id="55iRGE-QmXmswaMHTD7d-43" value="" style="edgeStyle=orthogonalEdgeStyle;rounded=0;orthogonalLoop=1;jettySize=auto;html=1;" parent="1" source="55iRGE-QmXmswaMHTD7d-55" target="55iRGE-QmXmswaMHTD7d-40" edge="1">
          <mxGeometry relative="1" as="geometry" />
        </mxCell>
        <mxCell id="55iRGE-QmXmswaMHTD7d-36" value="cocok" style="strokeWidth=2;html=1;shape=mxgraph.flowchart.decision;whiteSpace=wrap;" parent="1" vertex="1">
          <mxGeometry x="1670" y="-990" width="110" height="100" as="geometry" />
        </mxCell>
        <mxCell id="55iRGE-QmXmswaMHTD7d-58" style="edgeStyle=orthogonalEdgeStyle;rounded=0;orthogonalLoop=1;jettySize=auto;html=1;exitX=1;exitY=0.5;exitDx=0;exitDy=0;exitPerimeter=0;entryX=0;entryY=0.5;entryDx=0;entryDy=0;" parent="1" source="55iRGE-QmXmswaMHTD7d-40" target="dzPvkqmJKDAEyehiaQdK-6" edge="1">
          <mxGeometry relative="1" as="geometry" />
        </mxCell>
        <mxCell id="55iRGE-QmXmswaMHTD7d-59" value="YES" style="edgeLabel;html=1;align=center;verticalAlign=middle;resizable=0;points=[];" parent="55iRGE-QmXmswaMHTD7d-58" vertex="1" connectable="0">
          <mxGeometry x="0.1636" y="-3" relative="1" as="geometry">
            <mxPoint x="1" as="offset" />
          </mxGeometry>
        </mxCell>
        <mxCell id="55iRGE-QmXmswaMHTD7d-40" value="stok cukup" style="strokeWidth=2;html=1;shape=mxgraph.flowchart.decision;whiteSpace=wrap;" parent="1" vertex="1">
          <mxGeometry x="2075" y="-990" width="100" height="100" as="geometry" />
        </mxCell>
        <mxCell id="55iRGE-QmXmswaMHTD7d-44" style="edgeStyle=orthogonalEdgeStyle;rounded=0;orthogonalLoop=1;jettySize=auto;html=1;exitX=1;exitY=0.5;exitDx=0;exitDy=0;entryX=0;entryY=0.5;entryDx=0;entryDy=0;entryPerimeter=0;" parent="1" source="dzPvkqmJKDAEyehiaQdK-3" target="55iRGE-QmXmswaMHTD7d-36" edge="1">
          <mxGeometry relative="1" as="geometry" />
        </mxCell>
        <mxCell id="55iRGE-QmXmswaMHTD7d-51" style="edgeStyle=orthogonalEdgeStyle;rounded=0;orthogonalLoop=1;jettySize=auto;html=1;exitX=1;exitY=0.5;exitDx=0;exitDy=0;entryX=0;entryY=0.5;entryDx=0;entryDy=0;entryPerimeter=0;" parent="1" source="55iRGE-QmXmswaMHTD7d-61" target="55iRGE-QmXmswaMHTD7d-50" edge="1">
          <mxGeometry relative="1" as="geometry" />
        </mxCell>
        <mxCell id="55iRGE-QmXmswaMHTD7d-52" style="edgeStyle=orthogonalEdgeStyle;rounded=0;orthogonalLoop=1;jettySize=auto;html=1;exitX=1;exitY=0.5;exitDx=0;exitDy=0;exitPerimeter=0;entryX=0;entryY=0.5;entryDx=0;entryDy=0;entryPerimeter=0;" parent="1" source="5L5etxW3LUJKyH5QnlFN-1" target="SQljijMHcgAObp0ZF5zH-34" edge="1">
          <mxGeometry relative="1" as="geometry" />
        </mxCell>
        <mxCell id="55iRGE-QmXmswaMHTD7d-54" value="Mencocokkan&lt;br&gt;kode&lt;br&gt;barang" style="rounded=1;whiteSpace=wrap;html=1;absoluteArcSize=1;arcSize=14;strokeWidth=2;" parent="1" vertex="1">
          <mxGeometry x="1560" y="-985" width="84" height="90" as="geometry" />
        </mxCell>
        <mxCell id="55iRGE-QmXmswaMHTD7d-56" value="" style="edgeStyle=orthogonalEdgeStyle;rounded=0;orthogonalLoop=1;jettySize=auto;html=1;" parent="1" source="55iRGE-QmXmswaMHTD7d-63" target="55iRGE-QmXmswaMHTD7d-55" edge="1">
          <mxGeometry relative="1" as="geometry">
            <mxPoint x="1780" y="-940" as="sourcePoint" />
            <mxPoint x="1938" y="-940" as="targetPoint" />
          </mxGeometry>
        </mxCell>
        <mxCell id="55iRGE-QmXmswaMHTD7d-55" value="cek stok&lt;br&gt;yang tersedia" style="rounded=1;whiteSpace=wrap;html=1;absoluteArcSize=1;arcSize=14;strokeWidth=2;" parent="1" vertex="1">
          <mxGeometry x="1960" y="-985" width="84" height="90" as="geometry" />
        </mxCell>
        <mxCell id="55iRGE-QmXmswaMHTD7d-60" value="" style="edgeStyle=orthogonalEdgeStyle;rounded=0;orthogonalLoop=1;jettySize=auto;html=1;exitX=1;exitY=0.5;exitDx=0;exitDy=0;" parent="1" source="55iRGE-QmXmswaMHTD7d-61" target="55iRGE-QmXmswaMHTD7d-50" edge="1">
          <mxGeometry relative="1" as="geometry">
            <mxPoint x="1541" y="-710" as="sourcePoint" />
            <mxPoint x="1900" y="-710" as="targetPoint" />
          </mxGeometry>
        </mxCell>
        <mxCell id="55iRGE-QmXmswaMHTD7d-66" style="edgeStyle=orthogonalEdgeStyle;rounded=0;orthogonalLoop=1;jettySize=auto;html=1;exitX=0.5;exitY=1;exitDx=0;exitDy=0;exitPerimeter=0;entryX=0.5;entryY=1;entryDx=0;entryDy=0;" parent="1" source="55iRGE-QmXmswaMHTD7d-50" target="SQljijMHcgAObp0ZF5zH-32" edge="1">
          <mxGeometry relative="1" as="geometry" />
        </mxCell>
        <mxCell id="55iRGE-QmXmswaMHTD7d-67" value="NO" style="edgeLabel;html=1;align=center;verticalAlign=middle;resizable=0;points=[];" parent="55iRGE-QmXmswaMHTD7d-66" vertex="1" connectable="0">
          <mxGeometry x="-0.5974" y="-2" relative="1" as="geometry">
            <mxPoint as="offset" />
          </mxGeometry>
        </mxCell>
        <mxCell id="55iRGE-QmXmswaMHTD7d-50" value="cocok" style="strokeWidth=2;html=1;shape=mxgraph.flowchart.decision;whiteSpace=wrap;" parent="1" vertex="1">
          <mxGeometry x="1730" y="-750" width="130" height="80" as="geometry" />
        </mxCell>
        <mxCell id="55iRGE-QmXmswaMHTD7d-62" value="" style="edgeStyle=orthogonalEdgeStyle;rounded=0;orthogonalLoop=1;jettySize=auto;html=1;exitX=1;exitY=0.5;exitDx=0;exitDy=0;" parent="1" source="SQljijMHcgAObp0ZF5zH-32" target="55iRGE-QmXmswaMHTD7d-61" edge="1">
          <mxGeometry relative="1" as="geometry">
            <mxPoint x="1541" y="-710" as="sourcePoint" />
            <mxPoint x="1711" y="-710" as="targetPoint" />
          </mxGeometry>
        </mxCell>
        <mxCell id="55iRGE-QmXmswaMHTD7d-64" value="" style="edgeStyle=orthogonalEdgeStyle;rounded=0;orthogonalLoop=1;jettySize=auto;html=1;" parent="1" source="55iRGE-QmXmswaMHTD7d-36" target="55iRGE-QmXmswaMHTD7d-63" edge="1">
          <mxGeometry relative="1" as="geometry">
            <mxPoint x="1780" y="-940" as="sourcePoint" />
            <mxPoint x="1960" y="-940" as="targetPoint" />
          </mxGeometry>
        </mxCell>
        <mxCell id="55iRGE-QmXmswaMHTD7d-65" value="YES" style="edgeLabel;html=1;align=center;verticalAlign=middle;resizable=0;points=[];" parent="55iRGE-QmXmswaMHTD7d-64" vertex="1" connectable="0">
          <mxGeometry x="0.1781" y="1" relative="1" as="geometry">
            <mxPoint as="offset" />
          </mxGeometry>
        </mxCell>
        <mxCell id="55iRGE-QmXmswaMHTD7d-63" value="Input&amp;nbsp;&lt;br&gt;Jumlah barang&lt;br&gt;yang mau&lt;br&gt;diisi" style="shape=parallelogram;html=1;strokeWidth=2;perimeter=parallelogramPerimeter;whiteSpace=wrap;rounded=1;arcSize=12;size=0.23;" parent="1" vertex="1">
          <mxGeometry x="1810" y="-970" width="130" height="60" as="geometry" />
        </mxCell>
        <mxCell id="55iRGE-QmXmswaMHTD7d-68" value="" style="edgeStyle=orthogonalEdgeStyle;rounded=0;orthogonalLoop=1;jettySize=auto;html=1;exitX=1;exitY=0.5;exitDx=0;exitDy=0;entryX=0;entryY=0.5;entryDx=0;entryDy=0;entryPerimeter=0;" parent="1" source="SQljijMHcgAObp0ZF5zH-32" target="55iRGE-QmXmswaMHTD7d-61" edge="1">
          <mxGeometry relative="1" as="geometry">
            <mxPoint x="1541" y="-710" as="sourcePoint" />
            <mxPoint x="1776" y="-710" as="targetPoint" />
          </mxGeometry>
        </mxCell>
        <mxCell id="55iRGE-QmXmswaMHTD7d-61" value="Mencocokkan&lt;br&gt;kode&lt;br&gt;barang" style="rounded=1;whiteSpace=wrap;html=1;absoluteArcSize=1;arcSize=14;strokeWidth=2;" parent="1" vertex="1">
          <mxGeometry x="1612.25" y="-755" width="84" height="90" as="geometry" />
        </mxCell>
        <mxCell id="55iRGE-QmXmswaMHTD7d-74" value="" style="edgeStyle=orthogonalEdgeStyle;rounded=0;orthogonalLoop=1;jettySize=auto;html=1;exitX=1;exitY=0.5;exitDx=0;exitDy=0;entryX=1;entryY=0.5;entryDx=0;entryDy=0;" parent="1" source="SQljijMHcgAObp0ZF5zH-53" target="55iRGE-QmXmswaMHTD7d-72" edge="1">
          <mxGeometry relative="1" as="geometry">
            <mxPoint x="1726" y="-416" as="sourcePoint" />
            <mxPoint x="1116" y="-1070" as="targetPoint" />
            <Array as="points" />
          </mxGeometry>
        </mxCell>
        <mxCell id="55iRGE-QmXmswaMHTD7d-72" value="Output :&lt;br&gt;Menampilkan&lt;br&gt;Struk belanja" style="shape=parallelogram;html=1;strokeWidth=2;perimeter=parallelogramPerimeter;whiteSpace=wrap;rounded=1;arcSize=12;size=0.23;" parent="1" vertex="1">
          <mxGeometry x="1810" y="-445.71000000000004" width="200" height="60" as="geometry" />
        </mxCell>
        <mxCell id="55iRGE-QmXmswaMHTD7d-78" value="R3" style="strokeWidth=2;html=1;shape=mxgraph.flowchart.start_2;whiteSpace=wrap;" parent="1" vertex="1">
          <mxGeometry x="1786" y="-360" width="74" height="70" as="geometry" />
        </mxCell>
        <mxCell id="55iRGE-QmXmswaMHTD7d-79" style="edgeStyle=orthogonalEdgeStyle;rounded=0;orthogonalLoop=1;jettySize=auto;html=1;exitX=0.5;exitY=1;exitDx=0;exitDy=0;entryX=0;entryY=0.5;entryDx=0;entryDy=0;entryPerimeter=0;" parent="1" source="SQljijMHcgAObp0ZF5zH-53" target="55iRGE-QmXmswaMHTD7d-78" edge="1">
          <mxGeometry relative="1" as="geometry" />
        </mxCell>
        <mxCell id="55iRGE-QmXmswaMHTD7d-81" value="" style="edgeStyle=orthogonalEdgeStyle;rounded=0;orthogonalLoop=1;jettySize=auto;html=1;" parent="1" source="xk0f2dNad-sJVl7q87qp-19" target="55iRGE-QmXmswaMHTD7d-80" edge="1">
          <mxGeometry relative="1" as="geometry">
            <mxPoint x="1330" y="-1516" as="sourcePoint" />
            <mxPoint x="1583" y="-1516" as="targetPoint" />
          </mxGeometry>
        </mxCell>
        <mxCell id="55iRGE-QmXmswaMHTD7d-82" value="YES" style="edgeLabel;html=1;align=center;verticalAlign=middle;resizable=0;points=[];" parent="55iRGE-QmXmswaMHTD7d-81" vertex="1" connectable="0">
          <mxGeometry x="-0.2161" y="2" relative="1" as="geometry">
            <mxPoint as="offset" />
          </mxGeometry>
        </mxCell>
        <mxCell id="55iRGE-QmXmswaMHTD7d-80" value="R3" style="strokeWidth=2;html=1;shape=mxgraph.flowchart.start_2;whiteSpace=wrap;" parent="1" vertex="1">
          <mxGeometry x="1420" y="-1550.71" width="74" height="70" as="geometry" />
        </mxCell>
        <mxCell id="55iRGE-QmXmswaMHTD7d-84" value="" style="edgeStyle=orthogonalEdgeStyle;rounded=0;orthogonalLoop=1;jettySize=auto;html=1;" parent="1" source="55iRGE-QmXmswaMHTD7d-80" target="55iRGE-QmXmswaMHTD7d-83" edge="1">
          <mxGeometry relative="1" as="geometry">
            <mxPoint x="1494" y="-1516" as="sourcePoint" />
            <mxPoint x="1853" y="-1516" as="targetPoint" />
          </mxGeometry>
        </mxCell>
        <mxCell id="55iRGE-QmXmswaMHTD7d-83" value="Mengambil data&lt;br&gt;riwayat pembelian" style="rounded=1;whiteSpace=wrap;html=1;absoluteArcSize=1;arcSize=14;strokeWidth=2;" parent="1" vertex="1">
          <mxGeometry x="1580" y="-1565.71" width="100" height="100" as="geometry" />
        </mxCell>
        <mxCell id="55iRGE-QmXmswaMHTD7d-88" value="" style="edgeStyle=orthogonalEdgeStyle;rounded=0;orthogonalLoop=1;jettySize=auto;html=1;" parent="1" source="xk0f2dNad-sJVl7q87qp-33" target="55iRGE-QmXmswaMHTD7d-85" edge="1">
          <mxGeometry relative="1" as="geometry">
            <mxPoint x="1713" y="-2050" as="sourcePoint" />
            <mxPoint x="2100" y="-2050" as="targetPoint" />
          </mxGeometry>
        </mxCell>
        <mxCell id="55iRGE-QmXmswaMHTD7d-85" value="Mencocokkan&lt;br&gt;dengan aturan&lt;br&gt;&amp;nbsp;penulisan data&lt;br&gt;barang" style="rounded=1;whiteSpace=wrap;html=1;absoluteArcSize=1;arcSize=14;strokeWidth=2;" parent="1" vertex="1">
          <mxGeometry x="1860" y="-2100" width="100" height="100" as="geometry" />
        </mxCell>
        <mxCell id="55iRGE-QmXmswaMHTD7d-89" value="" style="edgeStyle=orthogonalEdgeStyle;rounded=0;orthogonalLoop=1;jettySize=auto;html=1;exitX=1;exitY=0.5;exitDx=0;exitDy=0;entryX=0;entryY=0.5;entryDx=0;entryDy=0;" parent="1" source="55iRGE-QmXmswaMHTD7d-93" target="55iRGE-QmXmswaMHTD7d-13" edge="1">
          <mxGeometry relative="1" as="geometry">
            <mxPoint x="2009" y="-1810" as="sourcePoint" />
            <mxPoint x="2388" y="-1810" as="targetPoint" />
          </mxGeometry>
        </mxCell>
        <mxCell id="55iRGE-QmXmswaMHTD7d-95" style="edgeStyle=orthogonalEdgeStyle;rounded=0;orthogonalLoop=1;jettySize=auto;html=1;exitX=0.5;exitY=1;exitDx=0;exitDy=0;exitPerimeter=0;entryX=0.5;entryY=1;entryDx=0;entryDy=0;" parent="1" source="55iRGE-QmXmswaMHTD7d-13" target="xk0f2dNad-sJVl7q87qp-41" edge="1">
          <mxGeometry relative="1" as="geometry" />
        </mxCell>
        <mxCell id="55iRGE-QmXmswaMHTD7d-96" value="NO" style="edgeLabel;html=1;align=center;verticalAlign=middle;resizable=0;points=[];" parent="55iRGE-QmXmswaMHTD7d-95" vertex="1" connectable="0">
          <mxGeometry x="-0.3601" relative="1" as="geometry">
            <mxPoint as="offset" />
          </mxGeometry>
        </mxCell>
        <mxCell id="55iRGE-QmXmswaMHTD7d-13" value="cocok" style="strokeWidth=2;html=1;shape=mxgraph.flowchart.decision;whiteSpace=wrap;" parent="1" vertex="1">
          <mxGeometry x="2277.5" y="-1860" width="110" height="100" as="geometry" />
        </mxCell>
        <mxCell id="55iRGE-QmXmswaMHTD7d-94" value="" style="edgeStyle=orthogonalEdgeStyle;rounded=0;orthogonalLoop=1;jettySize=auto;html=1;exitX=1;exitY=0.5;exitDx=0;exitDy=0;entryX=0;entryY=0.5;entryDx=0;entryDy=0;" parent="1" source="xk0f2dNad-sJVl7q87qp-43" target="55iRGE-QmXmswaMHTD7d-93" edge="1">
          <mxGeometry relative="1" as="geometry">
            <mxPoint x="2129" y="-1810" as="sourcePoint" />
            <mxPoint x="2270" y="-1810" as="targetPoint" />
          </mxGeometry>
        </mxCell>
        <mxCell id="55iRGE-QmXmswaMHTD7d-93" value="Mencocokkan&lt;br&gt;dengan aturan&lt;br&gt;&amp;nbsp;penulisan data&lt;br&gt;barang" style="rounded=1;whiteSpace=wrap;html=1;absoluteArcSize=1;arcSize=14;strokeWidth=2;" parent="1" vertex="1">
          <mxGeometry x="2160" y="-1860" width="100" height="100" as="geometry" />
        </mxCell>
        <mxCell id="55iRGE-QmXmswaMHTD7d-97" value="" style="edgeStyle=orthogonalEdgeStyle;rounded=0;orthogonalLoop=1;jettySize=auto;html=1;exitX=1;exitY=0.5;exitDx=0;exitDy=0;entryX=0;entryY=0.5;entryDx=0;entryDy=0;" parent="1" target="55iRGE-QmXmswaMHTD7d-6" edge="1">
          <mxGeometry relative="1" as="geometry">
            <mxPoint x="1856.25" y="-1670" as="sourcePoint" />
            <mxPoint x="2230" y="-1670" as="targetPoint" />
          </mxGeometry>
        </mxCell>
        <mxCell id="55iRGE-QmXmswaMHTD7d-98" value="YES" style="edgeLabel;html=1;align=center;verticalAlign=middle;resizable=0;points=[];" parent="55iRGE-QmXmswaMHTD7d-97" vertex="1" connectable="0">
          <mxGeometry x="-0.0888" y="2" relative="1" as="geometry">
            <mxPoint x="225" y="2" as="offset" />
          </mxGeometry>
        </mxCell>
        <mxCell id="55iRGE-QmXmswaMHTD7d-6" value="cocok" style="strokeWidth=2;html=1;shape=mxgraph.flowchart.decision;whiteSpace=wrap;" parent="1" vertex="1">
          <mxGeometry x="1920" y="-1720" width="100" height="100" as="geometry" />
        </mxCell>
        <mxCell id="55iRGE-QmXmswaMHTD7d-100" value="" style="edgeStyle=orthogonalEdgeStyle;rounded=0;orthogonalLoop=1;jettySize=auto;html=1;exitX=1;exitY=0.5;exitDx=0;exitDy=0;entryX=0;entryY=0.5;entryDx=0;entryDy=0;entryPerimeter=0;" parent="1" source="xk0f2dNad-sJVl7q87qp-47" target="55iRGE-QmXmswaMHTD7d-99" edge="1">
          <mxGeometry relative="1" as="geometry">
            <mxPoint x="1713" y="-1670" as="sourcePoint" />
            <mxPoint x="1920" y="-1670" as="targetPoint" />
          </mxGeometry>
        </mxCell>
        <mxCell id="55iRGE-QmXmswaMHTD7d-99" value="Mencocokkan&amp;nbsp;&lt;br&gt;kode barang" style="rounded=1;whiteSpace=wrap;html=1;absoluteArcSize=1;arcSize=14;strokeWidth=2;" parent="1" vertex="1">
          <mxGeometry x="1760" y="-1720" width="100" height="100" as="geometry" />
        </mxCell>
        <mxCell id="55iRGE-QmXmswaMHTD7d-101" value="" style="edgeStyle=orthogonalEdgeStyle;rounded=0;orthogonalLoop=1;jettySize=auto;html=1;exitX=1;exitY=0.5;exitDx=0;exitDy=0;entryX=0;entryY=0.5;entryDx=0;entryDy=0;" parent="1" source="xk0f2dNad-sJVl7q87qp-41" target="55iRGE-QmXmswaMHTD7d-91" edge="1">
          <mxGeometry relative="1" as="geometry">
            <mxPoint x="1694" y="-1810" as="sourcePoint" />
            <mxPoint x="1850" y="-1810" as="targetPoint" />
          </mxGeometry>
        </mxCell>
        <mxCell id="55iRGE-QmXmswaMHTD7d-91" value="Mencocokkan&amp;nbsp;&lt;br&gt;kode barang" style="rounded=1;whiteSpace=wrap;html=1;absoluteArcSize=1;arcSize=14;strokeWidth=2;" parent="1" vertex="1">
          <mxGeometry x="1730" y="-1860" width="100" height="100" as="geometry" />
        </mxCell>
        <mxCell id="5L5etxW3LUJKyH5QnlFN-2" value="" style="edgeStyle=orthogonalEdgeStyle;rounded=0;orthogonalLoop=1;jettySize=auto;html=1;exitX=1;exitY=0.5;exitDx=0;exitDy=0;exitPerimeter=0;entryX=0;entryY=0.5;entryDx=0;entryDy=0;entryPerimeter=0;" parent="1" source="55iRGE-QmXmswaMHTD7d-50" target="5L5etxW3LUJKyH5QnlFN-1" edge="1">
          <mxGeometry relative="1" as="geometry">
            <mxPoint x="1888" y="-710" as="sourcePoint" />
            <mxPoint x="2036" y="-710" as="targetPoint" />
          </mxGeometry>
        </mxCell>
        <mxCell id="5L5etxW3LUJKyH5QnlFN-3" value="YES" style="edgeLabel;html=1;align=center;verticalAlign=middle;resizable=0;points=[];" parent="5L5etxW3LUJKyH5QnlFN-2" vertex="1" connectable="0">
          <mxGeometry x="-0.0868" y="-2" relative="1" as="geometry">
            <mxPoint as="offset" />
          </mxGeometry>
        </mxCell>
        <mxCell id="5L5etxW3LUJKyH5QnlFN-1" value="Cek keberadaan data barang di keranjang" style="rounded=1;whiteSpace=wrap;html=1;absoluteArcSize=1;arcSize=14;strokeWidth=2;" parent="1" vertex="1">
          <mxGeometry x="1910" y="-760" width="100" height="100" as="geometry" />
        </mxCell>
        <mxCell id="PG_xydleqW1k6PQ2zILh-2" style="edgeStyle=orthogonalEdgeStyle;rounded=0;orthogonalLoop=1;jettySize=auto;html=1;exitX=1;exitY=0.5;exitDx=0;exitDy=0;entryX=1;entryY=0.5;entryDx=0;entryDy=0;" parent="1" source="SQljijMHcgAObp0ZF5zH-25" target="J4htUw2u4dFuZCWiD5Bl-2" edge="1">
          <mxGeometry relative="1" as="geometry">
            <Array as="points">
              <mxPoint x="2310" y="-570" />
              <mxPoint x="2310" y="-1070" />
            </Array>
          </mxGeometry>
        </mxCell>
        <mxCell id="SQljijMHcgAObp0ZF5zH-25" value="Hapus barang&lt;br&gt;di keranjang" style="rounded=1;whiteSpace=wrap;html=1;absoluteArcSize=1;arcSize=14;strokeWidth=2;" parent="1" vertex="1">
          <mxGeometry x="2166.25" y="-605" width="70" height="70" as="geometry" />
        </mxCell>
        <mxCell id="PG_xydleqW1k6PQ2zILh-3" value="Cek keberadaan&lt;br&gt;kode barang&lt;br&gt;pada keranjang" style="rounded=1;whiteSpace=wrap;html=1;absoluteArcSize=1;arcSize=14;strokeWidth=2;" parent="1" vertex="1">
          <mxGeometry x="1645" y="-620" width="100" height="100" as="geometry" />
        </mxCell>
        <mxCell id="PG_xydleqW1k6PQ2zILh-4" style="edgeStyle=orthogonalEdgeStyle;rounded=0;orthogonalLoop=1;jettySize=auto;html=1;exitX=0.5;exitY=1;exitDx=0;exitDy=0;exitPerimeter=0;entryX=0.459;entryY=1.006;entryDx=0;entryDy=0;entryPerimeter=0;" parent="1" source="SQljijMHcgAObp0ZF5zH-18" target="SQljijMHcgAObp0ZF5zH-14" edge="1">
          <mxGeometry relative="1" as="geometry">
            <Array as="points">
              <mxPoint x="1955" y="-490" />
              <mxPoint x="1477" y="-490" />
            </Array>
          </mxGeometry>
        </mxCell>
        <mxCell id="Fy-MnTj4vUKOd9EDJ-XM-2" value="NO" style="edgeLabel;html=1;align=center;verticalAlign=middle;resizable=0;points=[];" parent="PG_xydleqW1k6PQ2zILh-4" vertex="1" connectable="0">
          <mxGeometry x="-0.5703" y="-2" relative="1" as="geometry">
            <mxPoint as="offset" />
          </mxGeometry>
        </mxCell>
      </root>
    </mxGraphModel>
  </diagram>
</mxfile>
